<svg width="223" height="67" viewBox="0 0 223 67" fill="none" xmlns="http://www.w3.org/2000/svg">
<rect width="223" height="67" fill="white"/>
<mask id="mask0_0_2" style="mask-type:luminance" maskUnits="userSpaceOnUse" x="16" y="12" width="15" height="20">
<path fill-rule="evenodd" clip-rule="evenodd" d="M16.0095 12.0183H30.6432V31.3405H16.0095V12.0183Z" fill="white"/>
</mask>
<g mask="url(#mask0_0_2)">
<path fill-rule="evenodd" clip-rule="evenodd" d="M23.624 31.0441L23.7171 31.1672C23.7016 31.1463 23.6753 31.1115 23.624 31.0441M22.9353 31.1672L23.0287 31.0441C22.9775 31.1115 22.9512 31.1463 22.9353 31.1672M23.3264 12.0182C19.3021 12.0182 16.0095 15.303 16.0095 19.3952C16.0095 22.5558 17.7987 25.5299 19.4883 27.6417C20.3394 28.7182 21.1977 29.6015 21.8363 30.2158C22.1556 30.5261 22.4215 30.7678 22.608 30.9333C22.7076 31.0164 22.7809 31.0781 22.8343 31.1197C22.8541 31.1474 22.8739 31.1609 22.8938 31.1751L22.9071 31.1886H22.914V31.1957C23.1532 31.3888 23.4992 31.3888 23.7388 31.1957V31.1886H23.7453L23.7586 31.1751C23.7788 31.1609 23.7986 31.1474 23.8185 31.1197C23.8719 31.0781 23.9451 31.0164 24.0447 30.9333C24.2309 30.7678 24.4968 30.5261 24.8164 30.2158C25.4547 29.6015 26.313 28.7182 27.1645 27.6417C28.8541 25.5299 30.6432 22.5558 30.6432 19.3952C30.6432 15.303 27.3506 12.0182 23.3264 12.0182" fill="#FFDD17"/>
</g>
<path fill-rule="evenodd" clip-rule="evenodd" d="M74.2244 27.1549C75.6415 27.9903 76.7698 29.1265 77.6095 30.5621C78.4484 31.9981 78.8679 33.5663 78.8679 35.2656V45.5084C78.8679 46.2416 78.6142 46.8641 78.1082 47.376C77.6018 47.8897 76.9869 48.1463 76.2638 48.1463C75.5403 48.1463 74.9254 47.8897 74.4198 47.376C73.913 46.8641 73.66 46.2416 73.66 45.5084V36.5846C73.66 35.5591 73.414 34.6063 72.9227 33.7268C72.4302 32.8483 71.7724 32.1519 70.9478 31.6389C70.1235 31.1267 69.2189 30.87 68.2358 30.87C67.2517 30.87 66.3482 31.1267 65.5235 31.6389C64.6989 32.1519 64.0407 32.8483 63.549 33.7268C63.0566 34.6063 62.8116 35.5591 62.8116 36.5846V45.5084C62.8116 46.2416 62.5575 46.8641 62.0519 47.376C61.5451 47.8897 60.9302 48.1463 60.2075 48.1463C59.4841 48.1463 58.8692 47.8897 58.3631 47.376C57.8568 46.8641 57.6038 46.2416 57.6038 45.5084V28.9794C57.6038 28.2469 57.8568 27.6244 58.3631 27.1107C58.8692 26.5985 59.4841 26.3418 60.2075 26.3418C60.902 26.3418 61.4945 26.5766 61.987 27.0453C62.4783 27.5141 62.753 28.0857 62.8116 28.7592C63.6792 27.8517 64.6916 27.1482 65.8492 26.6494C67.006 26.1517 68.2358 25.9024 69.5379 25.9024C71.2444 25.9024 72.8068 26.3196 74.2244 27.1549" fill="#1F2632"/>
<path fill-rule="evenodd" clip-rule="evenodd" d="M96.4171 43.1227C97.3852 42.5396 98.1452 41.7466 98.6968 40.7434C99.2483 39.7406 99.524 38.6551 99.524 37.4876C99.524 36.3201 99.2483 35.2354 98.6968 34.2318C98.1452 33.2298 97.3852 32.436 96.4171 31.8517C95.4481 31.2686 94.3976 30.9768 93.2651 30.9768C92.1319 30.9768 91.0814 31.2686 90.1136 31.8517C89.1447 32.436 88.3846 33.2298 87.8331 34.2318C87.2812 35.2354 87.0062 36.3201 87.0062 37.4876C87.0062 38.6551 87.2812 39.7406 87.8331 40.7434C88.3846 41.7466 89.1447 42.5396 90.1136 43.1227C91.0814 43.707 92.1319 43.9988 93.2651 43.9988C94.3976 43.9988 95.4481 43.707 96.4171 43.1227M103.972 27.1371C104.494 27.6614 104.755 28.2977 104.755 29.0455V45.9297C104.755 46.6787 104.494 47.3146 103.972 47.8378C103.451 48.3625 102.817 48.6243 102.072 48.6243C101.327 48.6243 100.693 48.3625 100.172 47.8378C99.6506 47.3146 99.3899 46.6787 99.3899 45.9297V45.8845C98.4357 46.9025 97.3335 47.689 96.0816 48.2422C94.8298 48.7954 93.5182 49.0732 92.1478 49.0732C90.2398 49.0732 88.4813 48.5564 86.8721 47.5236C85.2629 46.4908 83.9888 45.0843 83.0497 43.3026C82.1106 41.5224 81.6415 39.5835 81.6415 37.4876C81.6415 35.3925 82.1106 33.454 83.0497 31.673C83.9888 29.892 85.2629 28.484 86.8721 27.452C88.4813 26.4192 90.2398 25.9024 92.1478 25.9024C93.5182 25.9024 94.8298 26.1798 96.0816 26.7334C97.3335 27.2873 98.4357 28.0735 99.3899 29.0907V29.0455C99.3899 28.2977 99.6506 27.6614 100.172 27.1371C100.693 26.6135 101.327 26.3513 102.072 26.3513C102.817 26.3513 103.451 26.6135 103.972 27.1371" fill="#1F2632"/>
<path fill-rule="evenodd" clip-rule="evenodd" d="M121.245 43.1917C122.213 42.6153 122.973 41.8315 123.525 40.84C124.076 39.8488 124.352 38.7759 124.352 37.6219C124.352 36.468 124.076 35.3958 123.525 34.4039C122.973 33.4135 122.213 32.6289 121.245 32.0514C120.276 31.475 119.225 31.1866 118.093 31.1866C116.96 31.1866 115.91 31.475 114.941 32.0514C113.972 32.6289 113.212 33.4135 112.661 34.4039C112.109 35.3958 111.834 36.468 111.834 37.6219C111.834 38.7759 112.109 39.8488 112.661 40.84C113.212 41.8315 113.972 42.6153 114.941 43.1917C115.91 43.7693 116.96 44.0576 118.093 44.0576C119.225 44.0576 120.276 43.7693 121.245 43.1917M124.486 27.7026C126.096 28.7227 127.37 30.1144 128.308 31.8747C129.247 33.6351 129.717 35.5511 129.717 37.6219C129.717 39.6935 129.247 41.6099 128.308 43.3695C127.37 45.1306 126.096 46.5208 124.486 47.5416C122.876 48.5624 121.118 49.0732 119.211 49.0732C117.839 49.0732 116.528 48.7987 115.276 48.2519C114.025 47.7051 112.922 46.9277 111.969 45.9215V45.9661C111.969 46.7064 111.707 47.335 111.186 47.8521C110.664 48.3708 110.031 48.6295 109.286 48.6295C108.541 48.6295 107.907 48.3708 107.386 47.8521C106.864 47.335 106.604 46.7064 106.604 45.9661V20.224C106.604 19.4845 106.864 18.8552 107.386 18.3373C107.907 17.8201 108.541 17.561 109.286 17.561C110.031 17.561 110.664 17.8201 111.186 18.3373C111.707 18.8552 111.969 19.4845 111.969 20.224V29.3224C112.922 28.3169 114.025 27.5399 115.276 26.9924C116.528 26.4452 117.839 26.1711 119.211 26.1711C121.118 26.1711 122.876 26.6818 124.486 27.7026" fill="#1F2632"/>
<path fill-rule="evenodd" clip-rule="evenodd" d="M146.256 43.1227C147.219 42.5396 147.975 41.7466 148.523 40.7434C149.071 39.7406 149.345 38.6551 149.345 37.4876C149.345 36.3201 149.071 35.2354 148.523 34.2318C147.975 33.2298 147.219 32.436 146.256 31.8517C145.293 31.2686 144.248 30.9768 143.123 30.9768C141.996 30.9768 140.951 31.2686 139.989 31.8517C139.026 32.436 138.27 33.2298 137.722 34.2318C137.174 35.2354 136.9 36.3201 136.9 37.4876C136.9 38.6551 137.174 39.7406 137.722 40.7434C138.27 41.7466 139.026 42.5396 139.989 43.1227C140.951 43.707 141.996 43.9988 143.123 43.9988C144.248 43.9988 145.293 43.707 146.256 43.1227M137.322 47.5236C135.559 46.4908 134.159 45.0843 133.121 43.3026C132.084 41.5224 131.566 39.5683 131.566 37.4425C131.566 35.3473 132.084 33.4168 133.121 31.6503C134.159 29.8837 135.559 28.484 137.322 27.452C139.085 26.4192 141.019 25.9024 143.123 25.9024C145.227 25.9024 147.16 26.4192 148.923 27.452C150.685 28.484 152.086 29.8837 153.124 31.6503C154.161 33.4168 154.679 35.3473 154.679 37.4425C154.679 39.5683 154.161 41.5224 153.124 43.3026C152.086 45.0843 150.685 46.4908 148.923 47.5236C147.16 48.5564 145.227 49.0732 143.123 49.0732C141.019 49.0732 139.085 48.5564 137.322 47.5236" fill="#1F2632"/>
<path fill-rule="evenodd" clip-rule="evenodd" d="M171.219 43.1227C172.181 42.5396 172.937 41.7466 173.485 40.7434C174.034 39.7406 174.308 38.6551 174.308 37.4876C174.308 36.3201 174.034 35.2354 173.485 34.2318C172.937 33.2298 172.181 32.436 171.219 31.8517C170.255 31.2686 169.21 30.9768 168.085 30.9768C166.958 30.9768 165.914 31.2686 164.951 31.8517C163.988 32.436 163.232 33.2298 162.684 34.2318C162.136 35.2354 161.862 36.3201 161.862 37.4876C161.862 38.6551 162.136 39.7406 162.684 40.7434C163.232 41.7466 163.988 42.5396 164.951 43.1227C165.914 43.707 166.958 43.9988 168.085 43.9988C169.21 43.9988 170.255 43.707 171.219 43.1227M162.284 47.5236C160.521 46.4908 159.121 45.0843 158.084 43.3026C157.046 41.5224 156.528 39.5683 156.528 37.4425C156.528 35.3473 157.046 33.4168 158.084 31.6503C159.121 29.8837 160.521 28.484 162.284 27.452C164.047 26.4192 165.981 25.9024 168.085 25.9024C170.189 25.9024 172.122 26.4192 173.886 27.452C175.648 28.484 177.048 29.8837 178.086 31.6503C179.123 33.4168 179.642 35.3473 179.642 37.4425C179.642 39.5683 179.123 41.5224 178.086 43.3026C177.048 45.0843 175.648 46.4908 173.886 47.5236C172.122 48.5564 170.189 49.0732 168.085 49.0732C165.981 49.0732 164.047 48.5564 162.284 47.5236" fill="#1F2632"/>
<path fill-rule="evenodd" clip-rule="evenodd" d="M180.701 48.0106C180.611 47.9202 180.566 47.811 180.566 47.6828C180.566 47.5551 180.611 47.4457 180.701 47.3553C180.792 47.2649 180.901 47.2195 181.029 47.2195C181.156 47.2195 181.264 47.2649 181.355 47.3553C181.445 47.4457 181.491 47.5551 181.491 47.6828C181.491 47.811 181.445 47.9202 181.355 48.0106C181.264 48.1007 181.156 48.1463 181.029 48.1463C180.901 48.1463 180.792 48.1007 180.701 48.0106" fill="#404042"/>
<path fill-rule="evenodd" clip-rule="evenodd" d="M199.471 38.5934C200.203 39.0216 200.778 39.6015 201.199 40.3336C201.619 41.0664 201.83 41.8674 201.83 42.7377V47.7728C201.83 47.8695 201.795 47.956 201.726 48.0321C201.657 48.1081 201.567 48.1464 201.458 48.1464C201.361 48.1464 201.278 48.1115 201.209 48.0422C201.14 47.9736 201.105 47.8834 201.105 47.7728V42.8407C201.105 42.0813 200.923 41.3803 200.557 40.7378C200.192 40.0953 199.696 39.5877 199.068 39.2145C198.441 38.8418 197.755 38.6556 197.011 38.6556C196.28 38.6556 195.601 38.8418 194.974 39.2145C194.346 39.5877 193.849 40.0953 193.484 40.7378C193.119 41.3803 192.936 42.0813 192.936 42.8407V47.7728C192.936 47.8695 192.902 47.956 192.833 48.0321C192.764 48.1081 192.681 48.1464 192.585 48.1464C192.488 48.1464 192.402 48.1081 192.326 48.0321C192.25 47.956 192.213 47.8695 192.213 47.7728V42.8407C192.213 42.0813 192.029 41.3803 191.664 40.7378C191.299 40.0953 190.806 39.5877 190.185 39.2145C189.565 38.8418 188.883 38.6556 188.138 38.6556C187.393 38.6556 186.711 38.8418 186.091 39.2145C185.47 39.5877 184.977 40.0953 184.612 40.7378C184.246 41.3803 184.064 42.0813 184.064 42.8407V47.7728C184.064 47.8695 184.029 47.956 183.96 48.0321C183.891 48.1081 183.802 48.1464 183.691 48.1464C183.595 48.1464 183.512 48.1115 183.443 48.0422C183.374 47.9736 183.34 47.8834 183.34 47.7728V38.5102C183.34 38.3997 183.374 38.3131 183.443 38.2513C183.512 38.1891 183.595 38.158 183.691 38.158C183.802 38.158 183.891 38.1925 183.96 38.2614C184.029 38.3307 184.064 38.4139 184.064 38.5102V40.5415C184.449 39.7675 185.018 39.1422 185.769 38.6653C186.521 38.1891 187.345 37.9512 188.242 37.9512C189.234 37.9512 190.13 38.2378 190.93 38.8107C191.73 39.3839 192.296 40.1264 192.626 41.0383C192.971 40.1264 193.549 39.3839 194.363 38.8107C195.177 38.2378 196.086 37.9512 197.094 37.9512C197.948 37.9512 198.741 38.1648 199.471 38.5934" fill="#1F2632"/>
<mask id="mask1_0_2" style="mask-type:luminance" maskUnits="userSpaceOnUse" x="202" y="38" width="10" height="11">
<path fill-rule="evenodd" clip-rule="evenodd" d="M202.9 38.9618H211.849V48.7695H202.9V38.9618Z" fill="white"/>
</mask>
<g mask="url(#mask1_0_2)">
<path fill-rule="evenodd" clip-rule="evenodd" d="M211.77 48.1854C211.822 48.2393 211.849 48.3136 211.849 48.4072C211.849 48.5146 211.809 48.6085 211.731 48.689C211.678 48.7429 211.606 48.7695 211.514 48.7695C211.409 48.7695 211.317 48.7291 211.239 48.6489L207.364 44.3794L203.49 48.6489C203.437 48.7291 203.352 48.7695 203.234 48.7695C203.142 48.7695 203.07 48.7429 203.018 48.689C202.939 48.6085 202.9 48.5146 202.9 48.4072C202.9 48.3136 202.926 48.2393 202.978 48.1854L206.912 43.8554L202.978 39.5458C202.926 39.4926 202.9 39.4122 202.9 39.3044C202.9 39.2239 202.932 39.1365 202.998 39.0422C203.064 38.9894 203.142 38.9618 203.234 38.9618C203.352 38.9618 203.437 39.0022 203.49 39.083L207.364 43.3522L211.259 39.083C211.324 39.0022 211.409 38.9618 211.514 38.9618C211.606 38.9618 211.685 38.9894 211.75 39.0422C211.816 39.1365 211.849 39.2239 211.849 39.3044C211.849 39.4122 211.822 39.4926 211.77 39.5458L207.836 43.8554L211.77 48.1854Z" fill="#1F2632"/>
</g>
<mask id="mask2_0_2" style="mask-type:luminance" maskUnits="userSpaceOnUse" x="16" y="34" width="15" height="16">
<path fill-rule="evenodd" clip-rule="evenodd" d="M16.0001 34.3841H30.6525V49.0732H16.0001V34.3841Z" fill="white"/>
</mask>
<g mask="url(#mask2_0_2)">
<path fill-rule="evenodd" clip-rule="evenodd" d="M25.017 34.3841H21.6356C18.5245 34.3841 16.0001 36.9152 16.0001 40.0337V43.4238C16.0001 46.5423 18.5245 49.0734 21.6356 49.0734H25.017C28.1277 49.0734 30.6525 46.5423 30.6525 43.4238V40.0337C30.6525 36.9152 28.1277 34.3841 25.017 34.3841" fill="#3FB549"/>
</g>
<mask id="mask3_0_2" style="mask-type:luminance" maskUnits="userSpaceOnUse" x="33" y="12" width="17" height="38">
<path fill-rule="evenodd" clip-rule="evenodd" d="M33.8881 12.0184H49.0856V49.6238H33.8881V12.0184Z" fill="white"/>
</mask>
<g mask="url(#mask3_0_2)">
<path fill-rule="evenodd" clip-rule="evenodd" d="M43.2404 12.0183H39.7333C36.5064 12.0183 33.8881 15.0267 33.8881 18.7338V21.0601V22.7629V38.8794V41.4826V42.9085C33.8881 46.6156 36.5064 49.624 39.7333 49.624H43.2404C46.4669 49.624 49.0856 46.6156 49.0856 42.9085V41.4826V40.8942V38.8794V22.7629V21.0601V18.7338C49.0856 15.0267 46.4669 12.0183 43.2404 12.0183" fill="#FF3364"/>
</g>
</svg>
