<svg width="74" height="67" viewBox="0 0 74 67" fill="none" xmlns="http://www.w3.org/2000/svg">
<rect width="74" height="67" fill="white"/>
<mask id="mask0_0_34" style="mask-type:luminance" maskUnits="userSpaceOnUse" x="20" y="15" width="15" height="20">
<path fill-rule="evenodd" clip-rule="evenodd" d="M20.0095 15.0183H34.6432V34.3405H20.0095V15.0183Z" fill="white"/>
</mask>
<g mask="url(#mask0_0_34)">
<path fill-rule="evenodd" clip-rule="evenodd" d="M27.624 34.0441L27.7171 34.1672C27.7016 34.1463 27.6753 34.1115 27.624 34.0441M26.9353 34.1672L27.0287 34.0441C26.9775 34.1115 26.9512 34.1463 26.9353 34.1672M27.3264 15.0182C23.3021 15.0182 20.0095 18.303 20.0095 22.3952C20.0095 25.5558 21.7987 28.5299 23.4883 30.6417C24.3394 31.7182 25.1977 32.6015 25.8363 33.2158C26.1556 33.5261 26.4215 33.7678 26.608 33.9333C26.7076 34.0164 26.7809 34.0781 26.8343 34.1197C26.8541 34.1474 26.8739 34.1609 26.8938 34.1751L26.9071 34.1886H26.914V34.1957C27.1532 34.3888 27.4992 34.3888 27.7388 34.1957V34.1886H27.7453L27.7586 34.1751C27.7788 34.1609 27.7986 34.1474 27.8185 34.1197C27.8719 34.0781 27.9451 34.0164 28.0447 33.9333C28.2309 33.7678 28.4968 33.5261 28.8164 33.2158C29.4547 32.6015 30.313 31.7182 31.1645 30.6417C32.8541 28.5299 34.6432 25.5558 34.6432 22.3952C34.6432 18.303 31.3506 15.0182 27.3264 15.0182" fill="#FFDD17"/>
</g>
<mask id="mask1_0_34" style="mask-type:luminance" maskUnits="userSpaceOnUse" x="20" y="37" width="15" height="16">
<path fill-rule="evenodd" clip-rule="evenodd" d="M20.0001 37.3841H34.6525V52.0732H20.0001V37.3841Z" fill="white"/>
</mask>
<g mask="url(#mask1_0_34)">
<path fill-rule="evenodd" clip-rule="evenodd" d="M29.017 37.3841H25.6356C22.5245 37.3841 20.0001 39.9152 20.0001 43.0337V46.4238C20.0001 49.5423 22.5245 52.0734 25.6356 52.0734H29.017C32.1277 52.0734 34.6525 49.5423 34.6525 46.4238V43.0337C34.6525 39.9152 32.1277 37.3841 29.017 37.3841" fill="#3FB549"/>
</g>
<mask id="mask2_0_34" style="mask-type:luminance" maskUnits="userSpaceOnUse" x="37" y="15" width="17" height="38">
<path fill-rule="evenodd" clip-rule="evenodd" d="M37.8881 15.0184H53.0856V52.6238H37.8881V15.0184Z" fill="white"/>
</mask>
<g mask="url(#mask2_0_34)">
<path fill-rule="evenodd" clip-rule="evenodd" d="M47.2404 15.0183H43.7333C40.5064 15.0183 37.8881 18.0267 37.8881 21.7338V24.0601V25.7629V41.8794V44.4826V45.9085C37.8881 49.6156 40.5064 52.624 43.7333 52.624H47.2404C50.4669 52.624 53.0856 49.6156 53.0856 45.9085V44.4826V43.8942V41.8794V25.7629V24.0601V21.7338C53.0856 18.0267 50.4669 15.0183 47.2404 15.0183" fill="#FF3364"/>
</g>
</svg>
