<svg width="24" height="16" viewBox="0 0 24 16" fill="none" xmlns="http://www.w3.org/2000/svg">
<path d="M12.3824 9.43371C14.4742 7.27703 16.539 5.15722 18.6307 3.00975C18.0202 3.00975 17.4008 3.00975 16.7813 3.00975C16.4402 3.00975 16.0901 3.01897 15.749 3.00053C15.2372 2.97288 14.9859 2.71482 14.9679 2.18947C14.95 1.74708 14.95 1.29546 14.9679 0.853068C14.9859 0.30929 15.2552 0.0143587 15.7759 0.0143587C18.1728 0.00514214 20.5608 0.00514214 22.9578 0.0143587C23.4605 0.0143587 23.7388 0.30929 23.7388 0.825419C23.7478 3.28625 23.7478 5.73786 23.7388 8.19869C23.7388 8.71482 23.4605 9.00053 22.9668 9.01897C22.5179 9.0374 22.069 9.02818 21.6201 9.01897C21.1174 9.00053 20.8481 8.73325 20.8481 8.20791C20.8391 7.35998 20.8481 6.52127 20.8481 5.67335C20.8481 5.52588 20.8481 5.37841 20.8481 5.23095C20.7853 5.18487 20.7134 5.12957 20.6506 5.08348C20.5788 5.23095 20.5249 5.41528 20.4172 5.52588C18.1998 7.81159 15.9824 10.0881 13.756 12.3738C12.8134 13.3415 12.1041 13.3323 11.1525 12.3554C10.3805 11.5627 9.60844 10.7701 8.83639 9.97749C8.81843 9.95906 8.78252 9.94984 8.72866 9.93141C8.62093 10.0328 8.49525 10.1434 8.38752 10.2632C6.66386 12.0328 4.94021 13.8024 3.21656 15.572C2.67792 16.125 2.35473 16.1342 1.82507 15.5904C1.58268 15.3415 1.34029 15.0927 1.0979 14.8439C0.640055 14.3646 0.640055 14.0236 1.0979 13.5443C2.95621 11.6273 4.8235 9.71943 6.68182 7.81159C7.01398 7.47058 7.33717 7.12957 7.66933 6.80698C8.35161 6.13417 9.1865 6.12496 9.8598 6.80698C10.7127 7.69178 11.5655 8.595 12.3824 9.43371Z" fill="#F5500A"/>
</svg>
