<svg width="20" height="20" viewBox="0 0 20 20" fill="none" xmlns="http://www.w3.org/2000/svg">
<path d="M3.68893 1.83786C3.80032 0.59823 4.24585 0.0223389 5.08121 0.00281713C5.93515 -0.0167046 6.34355 0.49086 6.56631 1.85738C8.69186 1.85738 10.8081 1.85738 12.9337 1.85738C13.1657 0.461578 13.5927 -0.0459872 14.4652 0.00281713C15.2913 0.0516214 15.709 0.60799 15.8203 1.88666C16.4701 1.88666 17.1291 1.88666 17.7881 1.88666C18.7534 1.88666 19.2454 2.39423 19.2454 3.40936C19.2454 8.4362 19.2454 13.4533 19.2454 18.4801C19.2454 19.4757 18.7627 19.9931 17.8159 19.9931C12.4325 20.0028 7.05825 20.0028 1.67477 19.9931C0.746578 19.9931 0.254639 19.4855 0.254639 18.4899C0.254639 13.463 0.254639 8.4362 0.254639 3.41912C0.254639 2.40399 0.746578 1.89642 1.71189 1.88666C2.33378 1.88666 2.94638 1.88666 3.56827 1.8769C3.59611 1.8769 3.62396 1.85738 3.68893 1.83786ZM1.13642 7.27466C1.13642 7.44059 1.13642 7.58701 1.13642 7.74318C1.13642 11.2766 1.13642 14.8003 1.13642 18.3337C1.13642 18.9682 1.22924 19.0658 1.83256 19.0658C7.10466 19.0658 12.3768 19.0658 17.6489 19.0658C18.28 19.0658 18.3636 18.9682 18.3636 18.3044C18.3636 14.7905 18.3636 11.2766 18.3636 7.7627C18.3636 7.60653 18.3543 7.45035 18.345 7.2649C12.6088 7.27466 6.90974 7.27466 1.13642 7.27466ZM14.8829 2.36495C14.8922 2.36495 14.8922 2.36495 14.8829 2.36495C14.8829 2.07212 14.8922 1.77929 14.8829 1.49623C14.8736 1.17412 14.7158 0.959381 14.4095 0.93986C14.1032 0.920338 13.899 1.11556 13.8897 1.4279C13.8619 2.04284 13.8712 2.65777 13.8897 3.2727C13.899 3.58505 14.1218 3.81931 14.4188 3.73147C14.6044 3.6729 14.8086 3.43864 14.8643 3.23366C14.9478 2.97012 14.8829 2.65777 14.8829 2.36495ZM5.61956 2.35518C5.61028 2.0526 5.67525 1.72073 5.59172 1.43766C5.53603 1.24245 5.31326 0.998425 5.12762 0.959381C4.83989 0.891055 4.63568 1.12532 4.6264 1.44742C4.60784 2.04284 4.60784 2.63825 4.6264 3.24342C4.63568 3.56553 4.81204 3.75099 5.12762 3.75099C5.44321 3.75099 5.601 3.53625 5.61956 3.2239C5.63813 2.94084 5.61956 2.64801 5.61956 2.35518Z" fill="#B350FB"/>
</svg>
