<svg width="13" height="14" viewBox="0 0 13 14" fill="none" xmlns="http://www.w3.org/2000/svg">
<path d="M3.46649 5.33128C3.46649 4.03124 3.46649 2.72574 3.46649 1.4257C3.46649 0.475255 3.96871 0.00549316 4.97892 0.00549316C7.16099 0.00549316 9.34882 0.00549316 11.5309 0.00549316C12.4776 0.00549316 12.9971 0.48618 12.9971 1.38747C12.9971 4.03671 12.9971 6.68595 12.9971 9.33519C12.9971 10.231 12.4776 10.7172 11.5309 10.7172C9.32573 10.7172 7.12635 10.7172 4.9212 10.7172C3.9918 10.7172 3.47226 10.231 3.47226 9.35157C3.46649 8.00783 3.46649 6.66956 3.46649 5.33128ZM12.1255 5.3586C12.1255 4.05856 12.1255 2.75852 12.1255 1.45848C12.1255 0.939555 12.0158 0.830308 11.4732 0.830308C9.30841 0.830308 7.14944 0.830308 4.9847 0.830308C4.45939 0.830308 4.33816 0.939555 4.33816 1.43663C4.33816 4.05856 4.33816 6.67502 4.33816 9.29695C4.33816 9.78856 4.45939 9.89781 4.99047 9.89781C7.15521 9.89781 9.31418 9.89781 11.4789 9.89781C12.0042 9.89781 12.1255 9.78856 12.1255 9.29149C12.1312 7.97506 12.1255 6.6641 12.1255 5.3586Z" fill="black"/>
<path d="M1.76358 9.24778C1.85017 9.19862 1.89635 9.16038 1.95408 9.13307C2.1619 9.02382 2.35239 9.0566 2.49671 9.22047C2.63525 9.37887 2.65257 9.57552 2.50825 9.723C2.2023 10.0398 1.88481 10.3402 1.54999 10.6298C1.38836 10.7663 1.18054 10.7499 1.02468 10.6079C0.718733 10.3348 0.412783 10.0507 0.124151 9.76124C-0.0374836 9.59737 -0.0432562 9.3898 0.118378 9.215C0.268467 9.05113 0.464737 9.02928 0.666779 9.13853C0.712961 9.16584 0.759142 9.19862 0.839959 9.25324C0.839959 6.6477 0.839959 4.07493 0.839959 1.50217C0.822641 1.50217 0.79955 1.49124 0.788005 1.50217C0.470509 1.68789 0.262694 1.68242 0.10106 1.48578C-0.0548015 1.2946 -0.00862033 1.08157 0.245376 0.841222C0.464737 0.628191 0.68987 0.415159 0.915003 0.202127C1.20941 -0.07099 1.40568 -0.0655277 1.70008 0.20759C1.93099 0.426084 2.1619 0.644578 2.3928 0.863072C2.62371 1.08157 2.65834 1.31098 2.49671 1.49124C2.33507 1.67696 2.13303 1.68242 1.83285 1.50763C1.82131 1.50217 1.79822 1.50217 1.75781 1.4967C1.76358 4.06947 1.76358 6.63678 1.76358 9.24778Z" fill="black"/>
<path d="M4.99625 12.334C7.16099 12.334 9.2911 12.334 11.4501 12.334C11.4097 12.2684 11.3692 12.2138 11.3346 12.1592C11.2249 11.968 11.2365 11.7877 11.4097 11.6403C11.5828 11.4928 11.7907 11.4764 11.9581 11.6239C12.2813 11.9079 12.5988 12.1974 12.8932 12.5142C13.0606 12.6945 13.0145 12.9075 12.8355 13.0769C12.5757 13.3281 12.3102 13.5849 12.0389 13.8307C11.8311 14.0218 11.6059 14.0382 11.4212 13.8962C11.2307 13.7487 11.2192 13.5248 11.3866 13.2899C11.4039 13.2626 11.427 13.2353 11.4674 13.1861C9.30264 13.1861 7.17253 13.1861 5.01356 13.1861C5.05975 13.2517 5.10015 13.3063 5.12902 13.3609C5.2387 13.5521 5.22715 13.7323 5.05397 13.8798C4.88079 14.0273 4.67298 14.0437 4.50557 13.8962C4.1823 13.6122 3.86481 13.3227 3.5704 13.0059C3.403 12.8256 3.44918 12.6126 3.62813 12.4432C3.89367 12.192 4.15344 11.9352 4.42475 11.6894C4.63834 11.4928 4.88079 11.4764 5.06552 11.6403C5.2387 11.7877 5.24447 12.0008 5.07706 12.2302C5.05975 12.2575 5.03665 12.2848 4.99625 12.334Z" fill="black"/>
<path d="M8.23472 1.67699C8.47717 1.67153 8.68499 1.86271 8.67922 2.08667C8.67922 2.2997 8.48295 2.48542 8.25781 2.49088C8.01536 2.49635 7.81909 2.31609 7.81909 2.08121C7.81909 1.85725 7.99804 1.68246 8.23472 1.67699Z" fill="black"/>
<path d="M10.8439 1.677C11.0748 1.677 11.2711 1.85726 11.2769 2.07029C11.2827 2.29425 11.0806 2.49089 10.8439 2.49089C10.6015 2.49089 10.411 2.30517 10.4168 2.07029C10.4225 1.84633 10.6073 1.677 10.8439 1.677Z" fill="black"/>
<path d="M8.25782 4.94886C8.48295 4.95432 8.67922 5.14004 8.68499 5.35307C8.68499 5.57703 8.48295 5.76821 8.2405 5.76275C7.99228 5.75729 7.81332 5.57157 7.82487 5.33669C7.83064 5.11273 8.02114 4.9434 8.25782 4.94886Z" fill="black"/>
<path d="M11.2769 5.36945C11.2712 5.59341 11.0576 5.77366 10.8151 5.76274C10.5784 5.75181 10.4053 5.57156 10.411 5.3476C10.4168 5.11272 10.6188 4.93792 10.8613 4.95431C11.098 4.96524 11.2827 5.15642 11.2769 5.36945Z" fill="black"/>
<path d="M8.67922 8.63053C8.68499 8.84357 8.49449 9.02929 8.26359 9.04021C8.01536 9.05113 7.81909 8.87634 7.81909 8.64146C7.81909 8.4175 7.99227 8.24271 8.22318 8.23178C8.46563 8.22086 8.67922 8.40658 8.67922 8.63053Z" fill="black"/>
<path d="M5.65433 1.677C5.87947 1.677 6.08151 1.86272 6.08151 2.07029C6.08728 2.29425 5.87947 2.49089 5.64279 2.48543C5.40034 2.48543 5.20984 2.29425 5.22138 2.05937C5.23293 1.84087 5.41765 1.677 5.65433 1.677Z" fill="black"/>
<path d="M7.37462 3.73626C7.36885 3.96021 7.18412 4.12955 6.94744 4.12955C6.71077 4.12955 6.50295 3.9329 6.50872 3.70895C6.5145 3.48499 6.73386 3.30473 6.97054 3.31566C7.21299 3.33204 7.38039 3.5123 7.37462 3.73626Z" fill="black"/>
<path d="M9.9723 3.73083C9.96653 3.95478 9.7818 4.12412 9.5509 4.12958C9.31422 4.12958 9.10641 3.93293 9.11218 3.71444C9.11795 3.49048 9.33154 3.31023 9.57399 3.32115C9.8049 3.33208 9.97807 3.50687 9.9723 3.73083Z" fill="black"/>
<path d="M5.22138 5.33668C5.23293 5.11819 5.42343 4.94885 5.65433 4.94885C5.89101 4.95431 6.09305 5.15642 6.08151 5.37492C6.06996 5.58795 5.86792 5.76274 5.64279 5.76274C5.40034 5.75728 5.21561 5.57156 5.22138 5.33668Z" fill="black"/>
<path d="M7.37458 6.99729C7.37458 7.22125 7.19563 7.39058 6.95895 7.39604C6.72227 7.40151 6.50869 7.21032 6.51446 6.98637C6.51446 6.77334 6.71073 6.58762 6.94163 6.58215C7.18408 6.58215 7.37458 6.76787 7.37458 6.99729Z" fill="black"/>
<path d="M9.9723 6.99729C9.9723 7.22125 9.79335 7.39058 9.55667 7.39604C9.31999 7.40151 9.1064 7.21032 9.11217 6.98637C9.11217 6.77334 9.30844 6.58762 9.53935 6.58215C9.7818 6.58215 9.9723 6.76787 9.9723 6.99729Z" fill="black"/>
<path d="M6.08727 8.63598C6.08727 8.84902 5.89677 9.03473 5.66587 9.0402C5.41764 9.04566 5.22137 8.87086 5.22137 8.63598C5.22137 8.41203 5.40033 8.23723 5.63123 8.23177C5.87368 8.22084 6.08727 8.41203 6.08727 8.63598Z" fill="black"/>
<path d="M11.2827 8.64692C11.2769 8.87087 11.0633 9.05113 10.8209 9.0402C10.5842 9.02928 10.411 8.84902 10.4225 8.62507C10.4283 8.39018 10.6304 8.21539 10.8728 8.23178C11.0979 8.2427 11.2884 8.43388 11.2827 8.64692Z" fill="black"/>
</svg>
