<svg width="165" height="19" viewBox="0 0 165 19" fill="none" xmlns="http://www.w3.org/2000/svg">
<path d="M0.825 9.225C0.825 3.425 4.125 0.249999 11.825 0.249999C18.8 0.249999 22.3 2.9 22.75 7.95H18.175C17.75 5.125 15.575 4.025 11.825 4.025C7.25 4.025 5.325 5.65 5.325 9.225C5.325 12.825 7.275 14.475 11.825 14.475C15.55 14.475 17.75 13.35 18.175 10.5H22.75C22.3 15.575 18.8 18.25 11.825 18.25C4.125 18.25 0.825 15.05 0.825 9.225ZM46.1404 0.499999H50.6404V18H46.1404V11.15H31.8904V18H27.3904V0.499999H31.8904V7.35H46.1404V0.499999ZM74.1346 4.075H60.1346V7.625H74.1346V10.875H60.1346V14.425H74.1346V18H55.6346V0.499999H74.1346V4.075ZM92.5262 0.499999C96.5012 0.499999 99.2262 3.025 99.2262 6.925C99.2262 10.825 96.5012 13.325 92.5262 13.325H83.2762V18H78.7762V0.499999H92.5262ZM91.2762 9.55C92.6262 9.55 94.7262 9.55 94.7262 6.925C94.7262 4.275 92.6262 4.275 91.2762 4.275H83.2762V9.55H91.2762ZM108.346 0.499999V18H103.846V0.499999H108.346ZM131.391 0.499999H135.891V18H129.766L117.841 4.875V18H113.341V0.499999H119.441L131.391 13.65V0.499999ZM159.143 18L157.268 14.275H146.793L144.918 18H139.968L148.993 0.499999H155.068L164.118 18H159.143ZM148.468 10.925H155.593L152.043 3.825L148.468 10.925Z" fill="#2E1930"/>
</svg>
