<svg width="13" height="20" viewBox="0 0 13 20" fill="none" xmlns="http://www.w3.org/2000/svg">
<path d="M5.96827 15.8437C5.96827 14.1484 5.96827 12.4999 5.96827 10.8203C5.43548 10.6562 4.86991 10.5468 4.36171 10.3203C3.61581 9.99213 2.81253 9.67963 2.18958 9.18744C0.443679 7.78119 0.583023 5.06244 2.41089 3.53119C3.28794 2.789 4.34532 2.42181 5.48466 2.26556C5.6404 2.24213 5.80434 2.21869 5.98466 2.19525C5.98466 1.7265 5.97647 1.28119 5.98466 0.843689C6.00106 0.335876 6.32893 0.00775146 6.81253 0.00775146C7.30433 0.00775146 7.6322 0.328064 7.6486 0.828064C7.65679 1.28119 7.65679 1.74213 7.66499 2.19525C7.66499 2.20306 7.68138 2.21869 7.70597 2.25775C8.73056 2.3515 9.74696 2.59369 10.665 3.10931C11.0011 3.30463 11.3371 3.51556 11.6486 3.74213C12.1404 4.1015 12.2224 4.69525 11.8699 5.15619C11.5093 5.63275 10.8617 5.74213 10.3535 5.39838C9.60761 4.89838 8.80433 4.52338 7.91089 4.35931C7.84532 4.34369 7.77975 4.34369 7.68958 4.33588C7.68138 4.46869 7.67319 4.58588 7.67319 4.69525C7.67319 5.92181 7.68138 7.14056 7.66499 8.36713C7.66499 8.64838 7.74696 8.76556 8.03384 8.8515C8.81253 9.09369 9.59122 9.32806 10.3289 9.67181C12.0584 10.4687 12.8863 11.8124 12.7306 13.6484C12.583 15.4218 11.6404 16.6796 9.9027 17.3359C9.21417 17.5937 8.46007 17.7109 7.67319 17.9062C7.67319 18.2578 7.68138 18.6874 7.67319 19.1093C7.66499 19.664 7.36171 19.9843 6.86171 19.9921C6.34532 19.9999 6.01745 19.6562 6.00925 19.1015C6.00106 18.6953 6.00925 18.2968 6.00925 17.8906C5.41909 17.789 4.84532 17.7109 4.27974 17.5781C3.09942 17.3124 2.07483 16.7656 1.15679 16.0156C0.681384 15.6249 0.61581 15.0156 1.00106 14.5546C1.4027 14.0703 1.98466 13.9921 2.51745 14.3906C3.37811 15.039 4.32893 15.4999 5.3945 15.7265C5.56663 15.7812 5.75515 15.8046 5.96827 15.8437ZM7.68138 11.3046C7.68138 12.8515 7.68138 14.3437 7.68138 15.8281C8.58302 15.8593 9.60761 15.3046 10.0338 14.5703C10.5175 13.7265 10.3617 12.7187 9.6486 12.1562C9.09942 11.7187 8.43548 11.4843 7.68138 11.3046ZM5.97647 4.23431C5.26335 4.29681 4.61581 4.4765 4.09122 4.92963C3.21417 5.68744 3.18958 6.9765 4.10761 7.56244C4.65679 7.914 5.31253 8.11713 5.98466 8.414C5.97647 6.94525 5.97647 5.6015 5.97647 4.23431Z" fill="#00A63E"/>
</svg>
