<svg width="22" height="20" viewBox="0 0 22 20" fill="none" xmlns="http://www.w3.org/2000/svg">
<path d="M2.03471 10.6385C0.99169 10.5524 0.737095 10.4193 0.745308 9.97291C0.75352 9.53438 0.999903 9.40909 2.08399 9.33861C2.2893 7.20079 3.15986 5.32922 4.76134 3.8022C6.36283 2.27518 8.30925 1.44511 10.5678 1.24934C10.6663 0.732505 10.3871 -0.0505801 11.3151 -0.00359501C12.0953 0.0355593 11.8736 0.716844 11.9311 1.20236C16.8505 1.93063 19.7003 4.63227 20.4888 9.35427C20.9733 9.44041 21.7946 9.17417 21.7535 10.0512C21.7125 10.7952 20.9979 10.5837 20.4888 10.6385C19.725 15.3292 16.8998 18.0465 11.9475 18.7983C11.8572 19.2603 12.1282 20.0434 11.2166 20.0042C10.4364 19.9651 10.6499 19.2838 10.6088 18.7983C5.66474 18.0622 2.82313 15.3605 2.03471 10.6385ZM19.068 9.34644C18.8873 5.68944 15.4215 2.6589 11.9229 2.55709C11.8982 3.04261 12.0543 3.7004 11.2741 3.70823C10.461 3.71606 10.6417 3.02695 10.5924 2.54143C6.42032 2.77636 3.50479 6.33157 3.46373 9.36211C3.96471 9.37777 4.62994 9.23681 4.66279 9.95725C4.69564 10.756 3.95649 10.5915 3.43088 10.6307C3.73475 14.8045 7.65223 17.4279 10.5678 17.4122C10.6499 16.5117 10.7813 16.2768 11.2166 16.2611C11.6683 16.2376 11.8161 16.4725 11.9393 17.4279C15.364 17.3339 18.8708 14.3347 19.0515 10.6385C18.5423 10.5837 17.8196 10.756 17.836 9.97291C17.8607 9.22115 18.5752 9.40126 19.068 9.34644Z" fill="#155DFC"/>
<path d="M11.233 15.0003C8.34212 14.9925 5.99327 12.7372 6.00149 9.97293C6.0097 7.20081 8.38318 4.96118 11.2987 4.96901C14.1814 4.98468 16.522 7.24779 16.5138 10.0121C16.5056 12.7764 14.1321 15.0082 11.233 15.0003ZM15.1998 9.98859C15.1998 7.92125 13.4258 6.23761 11.2576 6.23761C9.08948 6.23761 7.31553 7.92908 7.32374 9.99642C7.32374 12.0638 9.09769 13.7552 11.2659 13.7474C13.434 13.7474 15.1998 12.0559 15.1998 9.98859Z" fill="#155DFC"/>
<path d="M11.2576 8.10919C12.3499 8.10919 13.2369 8.96276 13.2287 10.0043C13.2205 11.0301 12.3335 11.868 11.2576 11.868C10.1653 11.868 9.27834 11.0144 9.28656 9.97294C9.29477 8.94709 10.1817 8.10919 11.2576 8.10919Z" fill="#155DFC"/>
</svg>
