<svg width="63" height="12" viewBox="0 0 63 12" fill="none" xmlns="http://www.w3.org/2000/svg">
<path d="M8.91269 0.799999C11.4567 0.799999 13.2007 2.416 13.2007 4.912C13.2007 7.408 11.4567 9.008 8.91269 9.008H2.99269V12H0.112686V0.799999H8.91269ZM8.11269 6.592C8.97669 6.592 10.3207 6.592 10.3207 4.912C10.3207 3.216 8.97669 3.216 8.11269 3.216H2.99269V6.592H8.11269ZM19.0377 9.584H27.6777V12H16.1577V0.799999H19.0377V9.584ZM42.6584 12L41.4584 9.616H34.7544L33.5544 12H30.3864L36.1624 0.799999H40.0504L45.8424 12H42.6584ZM35.8264 7.472H40.3864L38.1144 2.928L35.8264 7.472ZM60.0028 0.799999H62.8828V12H58.9628L51.3308 3.6V12H48.4508V0.799999H52.3548L60.0028 9.216V0.799999Z" fill="white"/>
</svg>
