<svg width="244" height="16" viewBox="0 0 244 16" fill="none" xmlns="http://www.w3.org/2000/svg">
<path d="M11.86 0.999999C15.04 0.999999 17.22 3.02 17.22 6.14C17.22 9.26 15.04 11.26 11.86 11.26H4.46V15H0.86V0.999999H11.86ZM10.86 8.24C11.94 8.24 13.62 8.24 13.62 6.14C13.62 4.02 11.94 4.02 10.86 4.02H4.46V8.24H10.86ZM24.5162 11.98H35.3162V15H20.9162V0.999999H24.5162V11.98ZM54.0422 15L52.5422 12.02H44.1622L42.6622 15H38.7022L45.9222 0.999999H50.7822L58.0222 15H54.0422ZM45.5022 9.34H51.2022L48.3622 3.66L45.5022 9.34ZM75.7227 0.999999H79.3227V15H74.4227L64.8827 4.5V15H61.2827V0.999999H66.1627L75.7227 11.52V0.999999ZM105.149 0.999999C108.769 0.999999 111.949 3.24 111.949 8C111.949 12.76 108.769 15 105.149 15H94.9889V0.999999H105.149ZM103.789 11.98C106.509 11.98 108.349 11.4 108.349 8C108.349 4.6 106.509 4.02 103.789 4.02H98.5889V11.98H103.789ZM130.451 3.86H119.251V6.7H130.451V9.3H119.251V12.14H130.451V15H115.651V0.999999H130.451V3.86ZM156.919 0.999999C160.099 0.999999 162.279 3.02 162.279 6.14C162.279 9.26 160.099 11.26 156.919 11.26H149.519V15H145.919V0.999999H156.919ZM155.919 8.24C156.999 8.24 158.679 8.24 158.679 6.14C158.679 4.02 156.999 4.02 155.919 4.02H149.519V8.24H155.919ZM178.049 15L176.549 12.02H168.169L166.669 15H162.709L169.929 0.999999H174.789L182.029 15H178.049ZM169.509 9.34H175.209L172.369 3.66L169.509 9.34ZM192.148 9.84V7.5H201.028V15H198.368L198.208 12.8C196.888 14.24 194.788 15.2 191.808 15.2C186.648 15.2 183.488 12.64 183.488 8C183.488 3.36 186.648 0.799999 192.408 0.799999C198.008 0.799999 200.808 2.98 201.028 6.46H197.368C197.168 5.4 196.208 3.82 192.408 3.82C187.728 3.82 187.088 6.4 187.088 8.08C187.088 9.78 187.748 12.42 192.408 12.42C195.888 12.42 197.288 10.9 197.368 9.84H192.148ZM213.34 15.2C207.18 15.2 204.54 12.64 204.54 7.98C204.54 3.34 207.18 0.799999 213.34 0.799999C219.48 0.799999 222.14 3.36 222.14 7.98C222.14 12.62 219.48 15.2 213.34 15.2ZM213.34 12.18C217.08 12.18 218.54 10.84 218.54 7.98C218.54 5.14 217.1 3.82 213.34 3.82C209.58 3.82 208.14 5.12 208.14 7.98C208.14 10.86 209.6 12.18 213.34 12.18ZM225.398 10.18H228.998C228.998 11.66 230.198 12.34 234.758 12.34C238.538 12.34 239.678 11.92 239.678 10.82C239.678 9.66 238.878 9.46 234.338 9.24C228.238 8.96 225.818 8 225.818 4.86C225.818 1.78 228.958 0.799999 234.198 0.799999C239.478 0.799999 242.678 2.12 242.678 5.58H239.078C239.078 4.04 237.538 3.66 233.798 3.66C230.258 3.66 229.418 4 229.418 5.04C229.418 6.12 230.258 6.32 234.338 6.56C239.858 6.86 243.278 7.16 243.278 10.7C243.278 14.44 239.738 15.2 234.558 15.2C228.818 15.2 225.398 14.22 225.398 10.18Z" fill="white"/>
</svg>
