<svg width="14" height="14" viewBox="0 0 14 14" fill="none" xmlns="http://www.w3.org/2000/svg">
<path d="M10.065 0.732308C6.94774 0.732308 3.85507 0.732308 0.743961 0.732308C0.743961 4.41846 0.743961 8.09231 0.743961 11.8154C0.860782 11.8154 0.983751 11.8154 1.10057 11.8154C2.76065 11.8154 4.42073 11.8154 6.08081 11.8215C6.20993 11.8215 6.36364 11.8277 6.45586 11.9015C6.54194 11.9692 6.62187 12.1354 6.59728 12.2338C6.56653 12.3508 6.43742 12.4492 6.32675 12.5231C6.25911 12.5662 6.14844 12.5415 6.05621 12.5415C4.23013 12.5415 2.41019 12.5415 0.584102 12.5415C0.104523 12.5415 0 12.4431 0 11.9754C0 8.16615 0 4.36308 0 0.553846C0 0.0984615 0.104524 0 0.559508 0C3.78744 0 7.01537 0 10.2433 0C10.6983 0 10.8028 0.104615 10.8028 0.56C10.8028 2.60923 10.809 4.66462 10.7967 6.71385C10.7967 6.94769 10.8458 7.04615 11.1041 7.08308C12.758 7.33538 14.0123 8.84308 14 10.5477C13.9877 12.2338 12.715 13.7169 11.0733 13.9569C9.17962 14.2338 7.42117 13.0215 7.07686 11.1877C6.72025 9.27385 7.91919 7.48923 9.8498 7.08308C10.022 7.04615 10.0896 6.99692 10.0896 6.81231C10.0834 4.83692 10.0834 2.86154 10.0834 0.88C10.0834 0.843077 10.0711 0.8 10.065 0.732308ZM13.2806 10.5354C13.2868 8.99692 12.0509 7.74154 10.5261 7.74154C8.98902 7.73538 7.73474 8.97231 7.72859 10.4985C7.72244 12.0369 8.95828 13.2862 10.4831 13.2923C12.0264 13.2985 13.2745 12.0677 13.2806 10.5354Z" fill="black"/>
<path d="M4.28546 3.77851C4.28546 3.25543 4.28546 2.73235 4.28546 2.20928C4.28546 1.84004 4.39613 1.72928 4.75274 1.72312C5.19543 1.71697 5.63197 1.71697 6.07466 1.72312C6.38823 1.72928 6.5112 1.84004 6.5112 2.14774C6.51735 3.25543 6.51735 4.35697 6.5112 5.46466C6.5112 5.7662 6.38208 5.88312 6.07466 5.88927C5.62582 5.89543 5.17699 5.89543 4.722 5.88927C4.40228 5.88312 4.28546 5.7662 4.28546 5.43389C4.28546 4.88004 4.28546 4.3262 4.28546 3.77851ZM5.01098 5.15081C5.28151 5.15081 5.52745 5.15081 5.79183 5.15081C5.79183 4.2462 5.79183 3.36004 5.79183 2.46774C5.5213 2.46774 5.27536 2.46774 5.01098 2.46774C5.01098 3.3662 5.01098 4.25235 5.01098 5.15081Z" fill="black"/>
<path d="M9.32721 4.32615C9.32721 4.68308 9.32721 5.04615 9.32721 5.40307C9.32106 5.76615 9.20424 5.88923 8.85378 5.89538C8.41109 5.90154 7.97455 5.90154 7.53186 5.89538C7.21214 5.88923 7.07688 5.76615 7.07688 5.45231C7.07073 4.68307 7.07073 3.91384 7.07688 3.14461C7.07688 2.84923 7.21829 2.72 7.51956 2.71384C7.9684 2.70769 8.42339 2.70769 8.87222 2.71384C9.19194 2.72 9.32106 2.84307 9.32721 3.15692C9.33335 3.54461 9.32721 3.93231 9.32721 4.32615ZM8.58325 5.15692C8.58325 4.56615 8.58325 4.00615 8.58325 3.45231C8.31271 3.45231 8.06063 3.45231 7.81469 3.45231C7.81469 4.03077 7.81469 4.59077 7.81469 5.15692C8.08522 5.15692 8.32501 5.15692 8.58325 5.15692Z" fill="black"/>
<path d="M3.72595 4.67076C3.72595 4.92922 3.7321 5.18153 3.72595 5.43999C3.7198 5.75999 3.59068 5.88922 3.27711 5.88922C2.82828 5.89537 2.37329 5.89537 1.92446 5.88922C1.61089 5.88307 1.48177 5.75384 1.47562 5.43384C1.46947 4.92307 1.46947 4.4123 1.47562 3.89537C1.48177 3.57537 1.60474 3.44614 1.92446 3.44614C2.37329 3.43999 2.82828 3.43999 3.27711 3.44614C3.59068 3.4523 3.7198 3.58153 3.72595 3.89537C3.7321 4.15384 3.72595 4.4123 3.72595 4.67076ZM2.21343 4.18461C2.21343 4.51691 2.21343 4.83076 2.21343 5.15076C2.47782 5.15076 2.7299 5.15076 2.98814 5.15076C2.98814 4.81845 2.98814 4.51076 2.98814 4.18461C2.7299 4.18461 2.49011 4.18461 2.21343 4.18461Z" fill="black"/>
<path d="M4.20555 7.13843C4.94337 7.13843 5.68118 7.13843 6.41284 7.13843C6.71412 7.13843 6.90472 7.31689 6.85553 7.55074C6.81249 7.75997 6.66493 7.85843 6.45588 7.85843C4.93107 7.85843 3.40626 7.85843 1.88144 7.85843C1.64165 7.85843 1.47565 7.73535 1.48179 7.4892C1.48794 7.24304 1.6601 7.13843 1.89989 7.13843C2.66844 7.13843 3.437 7.13843 4.20555 7.13843Z" fill="black"/>
<path d="M4.20555 8.61536C4.94337 8.61536 5.68118 8.61536 6.41284 8.61536C6.71412 8.61536 6.90472 8.79382 6.85553 9.02766C6.81249 9.23689 6.66493 9.33536 6.45588 9.33536C4.93107 9.33536 3.40626 9.33536 1.88144 9.33536C1.64165 9.33536 1.47565 9.21228 1.48179 8.96613C1.48794 8.71997 1.6601 8.61536 1.89989 8.61536C2.66844 8.61536 3.437 8.61536 4.20555 8.61536Z" fill="black"/>
<path d="M3.06806 10.0923C3.43696 10.0923 3.80587 10.0984 4.16863 10.0923C4.42071 10.0861 4.62361 10.16 4.64821 10.4492C4.66665 10.6707 4.4822 10.8123 4.18707 10.8184C3.44311 10.8246 2.693 10.8246 1.94904 10.8184C1.64777 10.8184 1.46331 10.6769 1.48791 10.4492C1.5125 10.1661 1.7154 10.0923 1.96749 10.0923C2.33024 10.0984 2.69915 10.0923 3.06806 10.0923Z" fill="black"/>
<path d="M11.6021 11.2676C11.5837 11.5876 11.4115 11.8892 11.0734 12.08C10.9381 12.1538 10.8459 12.2215 10.8643 12.4C10.8828 12.6461 10.7721 12.8369 10.5016 12.8307C10.2372 12.8246 10.1572 12.6338 10.1388 12.3876C10.1265 12.283 10.0343 12.1723 9.96049 12.08C9.85597 11.9569 9.7207 11.8584 9.62848 11.723C9.50551 11.5384 9.51165 11.3415 9.7084 11.2061C9.90515 11.0707 10.0835 11.1261 10.2064 11.3169C10.3355 11.52 10.5077 11.5507 10.7045 11.4523C10.9258 11.3415 10.9381 11.0892 10.7167 10.9723C10.5569 10.8861 10.3663 10.8615 10.1941 10.7938C9.78833 10.6461 9.46247 10.4061 9.40713 9.93842C9.35794 9.47072 9.57314 9.13842 9.97894 8.89842C10.0527 8.85534 10.1204 8.73226 10.1265 8.64611C10.1388 8.38765 10.2187 8.18457 10.5016 8.18457C10.7659 8.18457 10.8397 8.38149 10.8643 8.62765C10.8705 8.73226 10.9688 8.84303 11.0426 8.93534C11.1471 9.05842 11.2824 9.15688 11.3746 9.29226C11.4976 9.47688 11.4853 9.6738 11.2947 9.80919C11.098 9.94457 10.9196 9.88919 10.7967 9.69842C10.686 9.51996 10.5261 9.46457 10.354 9.54457C10.2556 9.58765 10.1572 9.70457 10.1388 9.80919C10.1265 9.88303 10.2249 10.0184 10.3048 10.0615C10.4462 10.1353 10.6122 10.1661 10.7659 10.2153C11.3009 10.3815 11.6083 10.7446 11.6021 11.2676Z" fill="black"/>
</svg>
