<svg width="180" height="19" viewBox="0 0 180 19" fill="none" xmlns="http://www.w3.org/2000/svg">
<path d="M20.525 6.925C20.525 9.775 19.075 11.875 16.725 12.8L19.95 18H14.65L11.825 13.325H4.575V18H0.075V0.499999H13.825C17.8 0.499999 20.525 3.025 20.525 6.925ZM4.575 4.275V9.55H12.575C13.925 9.55 16.025 9.55 16.025 6.925C16.025 4.275 13.925 4.275 12.575 4.275H4.575ZM43.4988 4.075H29.4988V7.625H43.4988V10.875H29.4988V14.425H43.4988V18H24.9988V0.499999H43.4988V4.075ZM47.8904 11.975H52.3904C52.3904 13.825 53.8904 14.675 59.5904 14.675C64.3154 14.675 65.7404 14.15 65.7404 12.775C65.7404 11.325 64.7404 11.075 59.0654 10.8C51.4404 10.45 48.4154 9.25 48.4154 5.325C48.4154 1.475 52.3404 0.249999 58.8904 0.249999C65.4904 0.249999 69.4904 1.9 69.4904 6.225H64.9904C64.9904 4.3 63.0654 3.825 58.3904 3.825C53.9654 3.825 52.9154 4.25 52.9154 5.55C52.9154 6.9 53.9654 7.15 59.0654 7.45C65.9654 7.825 70.2404 8.2 70.2404 12.625C70.2404 17.3 65.8154 18.25 59.3404 18.25C52.1654 18.25 47.8904 17.025 47.8904 11.975ZM96.7244 9.225C96.7244 15.3 93.3994 18.25 85.7244 18.25C78.0244 18.25 74.7244 15.325 74.7244 9.225V0.499999H79.2244V9.225C79.2244 11.675 79.8994 14.475 85.7244 14.475C91.5494 14.475 92.2244 11.65 92.2244 9.225V0.499999H96.7244V9.225ZM128.401 0.499999V18H123.901V6L116.626 18H113.376L106.101 6V18H101.601V0.499999H107.676L115.001 12.85L122.326 0.499999H128.401ZM151.91 4.075H137.91V7.625H151.91V10.875H137.91V14.425H151.91V18H133.41V0.499999H151.91V4.075ZM174.602 0.499999H179.102V18H172.977L161.052 4.875V18H156.552V0.499999H162.652L174.602 13.65V0.499999Z" fill="#2E1930"/>
</svg>
