<svg width="404" height="21" viewBox="0 0 404 21" fill="none" xmlns="http://www.w3.org/2000/svg">
<path d="M0.66 15.18H4.26C4.26 16.66 5.46 17.34 10.02 17.34C13.8 17.34 14.94 16.92 14.94 15.82C14.94 14.66 14.14 14.46 9.6 14.24C3.5 13.96 1.08 13 1.08 9.86C1.08 6.78 4.22 5.8 9.46 5.8C14.74 5.8 17.94 7.12 17.94 10.58H14.34C14.34 9.04 12.8 8.66 9.06 8.66C5.52 8.66 4.68 9 4.68 10.04C4.68 11.12 5.52 11.32 9.6 11.56C15.12 11.86 18.54 12.16 18.54 15.7C18.54 19.44 15 20.2 9.82 20.2C4.08 20.2 0.66 19.22 0.66 15.18ZM25.8444 6V20H22.2444V6H25.8444ZM51.2797 6V20H47.6797V10.4L41.8597 20H39.2597L33.4397 10.4V20H29.8397V6H34.6997L40.5597 15.88L46.4197 6H51.2797ZM72.8866 12.98C72.8866 17.84 70.2266 20.2 64.0866 20.2C57.9266 20.2 55.2866 17.86 55.2866 12.98V6H58.8866V12.98C58.8866 14.94 59.4266 17.18 64.0866 17.18C68.7466 17.18 69.2866 14.92 69.2866 12.98V6H72.8866V12.98ZM80.3881 16.98H91.1881V20H76.7881V6H80.3881V16.98ZM109.914 20L108.414 17.02H100.034L98.5341 20H94.5741L101.794 6H106.654L113.894 20H109.914ZM101.374 14.34H107.074L104.234 8.66L101.374 14.34ZM127.315 6C130.935 6 134.115 8.24 134.115 13C134.115 17.76 130.935 20 127.315 20H117.155V6H127.315ZM125.955 16.98C128.675 16.98 130.515 16.4 130.515 13C130.515 9.6 128.675 9.02 125.955 9.02H120.755V16.98H125.955ZM146.416 20.2C140.256 20.2 137.616 17.64 137.616 12.98C137.616 8.34 140.256 5.8 146.416 5.8C152.556 5.8 155.216 8.36 155.216 12.98C155.216 17.62 152.556 20.2 146.416 20.2ZM146.416 17.18C150.156 17.18 151.616 15.84 151.616 12.98C151.616 10.14 150.176 8.82 146.416 8.82C142.656 8.82 141.216 10.12 141.216 12.98C141.216 15.86 142.676 17.18 146.416 17.18ZM175.287 11.14C175.287 13.42 174.127 15.1 172.247 15.84L174.827 20H170.587L168.327 16.26H162.527V20H158.927V6H169.927C173.107 6 175.287 8.02 175.287 11.14ZM162.527 9.02V13.24H168.927C170.007 13.24 171.687 13.24 171.687 11.14C171.687 9.02 170.007 9.02 168.927 9.02H162.527ZM200.899 6C204.519 6 207.699 8.24 207.699 13C207.699 17.76 204.519 20 200.899 20H190.739V6H200.899ZM199.539 16.98C202.259 16.98 204.099 16.4 204.099 13C204.099 9.6 202.259 9.02 199.539 9.02H194.339V16.98H199.539ZM226.201 8.86H215.001V11.7H226.201V14.3H215.001V17.14H226.201V20H211.401V6H226.201V8.86ZM252.669 6C255.849 6 258.029 8.02 258.029 11.14C258.029 14.26 255.849 16.26 252.669 16.26H245.269V20H241.669V6H252.669ZM251.669 13.24C252.749 13.24 254.429 13.24 254.429 11.14C254.429 9.02 252.749 9.02 251.669 9.02H245.269V13.24H251.669ZM265.326 16.98H276.126V20H261.726V6H265.326V16.98ZM296.843 12.98C296.843 17.84 294.183 20.2 288.043 20.2C281.883 20.2 279.243 17.86 279.243 12.98V6H282.843V12.98C282.843 14.94 283.383 17.18 288.043 17.18C292.703 17.18 293.243 14.92 293.243 12.98V6H296.843V12.98ZM300.544 15.18H304.144C304.144 16.66 305.344 17.34 309.904 17.34C313.684 17.34 314.824 16.92 314.824 15.82C314.824 14.66 314.024 14.46 309.484 14.24C303.384 13.96 300.964 13 300.964 9.86C300.964 6.78 304.104 5.8 309.344 5.8C314.624 5.8 317.824 7.12 317.824 10.58H314.224C314.224 9.04 312.684 8.66 308.944 8.66C305.404 8.66 304.564 9 304.564 10.04C304.564 11.12 305.404 11.32 309.484 11.56C315.004 11.86 318.424 12.16 318.424 15.7C318.424 19.44 314.884 20.2 309.704 20.2C303.964 20.2 300.544 19.22 300.544 15.18ZM335.568 6H339.608L332.408 20H327.488L320.288 6H324.328L329.948 17.34L335.568 6ZM352.247 20L350.747 17.02H342.367L340.867 20H336.907L344.127 6H348.987L356.227 20H352.247ZM343.707 14.34H349.407L346.567 8.66L343.707 14.34ZM363.087 16.98H373.887V20H359.487V6H363.087V16.98ZM375.588 2L383.368 0.4V2.76L375.588 4.36V2ZM381.288 6V20H377.688V6H381.288ZM399.877 20L398.377 17.02H389.997L388.497 20H384.537L391.757 6H396.617L403.857 20H399.877ZM391.337 14.34H397.037L394.197 8.66L391.337 14.34Z" fill="#1D1D1D"/>
</svg>
