<svg width="502" height="30" viewBox="0 0 502 30" fill="none" xmlns="http://www.w3.org/2000/svg">
<path d="M0.825 14.225C0.825 8.425 4.125 5.25 11.825 5.25C18.8 5.25 22.3 7.9 22.75 12.95H18.175C17.75 10.125 15.575 9.025 11.825 9.025C7.25 9.025 5.325 10.65 5.325 14.225C5.325 17.825 7.275 19.475 11.825 19.475C15.55 19.475 17.75 18.35 18.175 15.5H22.75C22.3 20.575 18.8 23.25 11.825 23.25C4.125 23.25 0.825 20.05 0.825 14.225ZM38.1404 23.25C30.4404 23.25 27.1404 20.05 27.1404 14.225C27.1404 8.425 30.4404 5.25 38.1404 5.25C45.8154 5.25 49.1404 8.45 49.1404 14.225C49.1404 20.025 45.8154 23.25 38.1404 23.25ZM38.1404 19.475C42.8154 19.475 44.6404 17.8 44.6404 14.225C44.6404 10.675 42.8404 9.025 38.1404 9.025C33.4404 9.025 31.6404 10.65 31.6404 14.225C31.6404 17.825 33.4654 19.475 38.1404 19.475ZM73.9061 5.5V9.275H65.4061V23H60.9061V9.275H52.4061V5.5H73.9061ZM82.8855 5.5V23H78.3855V5.5H82.8855ZM107.508 5.5V9.275L94.2076 19.225H107.508V23H87.7576V19.225L101.033 9.275H87.7576V5.5H107.508ZM130.996 23L129.121 19.275H118.646L116.771 23H111.821L120.846 5.5H126.921L135.971 23H130.996ZM120.321 15.925H127.446L123.896 8.825L120.321 15.925ZM152.747 5.5C157.272 5.5 161.247 8.3 161.247 14.25C161.247 20.2 157.272 23 152.747 23H140.047V5.5H152.747ZM151.047 19.225C154.447 19.225 156.747 18.5 156.747 14.25C156.747 10 154.447 9.275 151.047 9.275H144.547V19.225H151.047ZM176.624 23.25C168.924 23.25 165.624 20.05 165.624 14.225C165.624 8.425 168.924 5.25 176.624 5.25C184.299 5.25 187.624 8.45 187.624 14.225C187.624 20.025 184.299 23.25 176.624 23.25ZM176.624 19.475C181.299 19.475 183.124 17.8 183.124 14.225C183.124 10.675 181.324 9.025 176.624 9.025C171.924 9.025 170.124 10.65 170.124 14.225C170.124 17.825 171.949 19.475 176.624 19.475ZM212.713 11.925C212.713 14.775 211.263 16.875 208.913 17.8L212.138 23H206.838L204.013 18.325H196.763V23H192.263V5.5H206.013C209.988 5.5 212.713 8.025 212.713 11.925ZM196.763 9.275V14.55H204.763C206.113 14.55 208.213 14.55 208.213 11.925C208.213 9.275 206.113 9.275 204.763 9.275H196.763Z" fill="white"/>
</svg>
