<svg width="75" height="45" viewBox="0 0 75 45" fill="none" xmlns="http://www.w3.org/2000/svg">
<g clip-path="url(#clip0_100_55)">
<path d="M52.1 44.1H22.1C9.9 44.1 0 34.2 0 22.1C0 9.9 9.9 0 22.1 0H52.2C64.4 0 74.3 9.9 74.3 22.1C74.2 34.2 64.3 44.1 52.1 44.1Z" fill="white"/>
<path d="M30.6 20.4998C30.5 20.4998 30.3 20.4998 30 20.3998C32 18.6998 33.9 17.1998 35.8 15.5998C35.1 14.7998 34.5 14.0998 33.9 13.2998C30.9 15.7998 27.9 18.2998 25 20.6998C24.1 21.4998 24.1 22.3998 25 23.1998C28 25.6998 30.9 28.1998 34 30.6998C34.7 29.8998 35.3 29.1998 35.9 28.3998C34 26.7998 32.1 25.1998 30.1 23.4998C30.7 23.4998 31 23.4998 31.4 23.4998C37.7 23.4998 43.9999 23.4998 50.2999 23.4998V20.4998C43.4999 20.4998 37.1 20.4998 30.6 20.4998Z" fill="black"/>
</g>
<defs>
<clipPath id="clip0_100_55">
<rect width="74.2" height="44.1" fill="white"/>
</clipPath>
</defs>
</svg>
