<svg width="196" height="45" viewBox="0 0 196 45" fill="none" xmlns="http://www.w3.org/2000/svg">
<g clip-path="url(#clip0_100_10)">
<path d="M173.2 44.1H22.1C9.9 44.1 0 34.2 0 22.1C0 9.9 9.9 0 22.1 0H173.2C185.4 0 195.3 9.9 195.3 22.1C195.2 34.2 185.4 44.1 173.2 44.1Z" fill="white"/>
<path d="M31.8 16.2998C32.5 17.0998 33.1 17.7998 33.7 18.5998C31.8 20.1998 29.9 21.6998 27.9 23.3998C28.2 23.3998 28.4 23.4998 28.5 23.4998C38.2 23.4998 47.8 23.4998 57.5 23.4998C59.1 23.4998 60.4 22.7998 61 21.2998C61.7 19.8998 61.4 18.4998 60.5 17.2998C59.7 16.3998 58.7 15.8998 57.5 15.8998C55 15.8998 52.6 15.8998 50.1 15.8998C49.9 15.8998 49.6 15.8998 49.3 15.8998C49.3 14.8998 49.3 13.8998 49.3 12.8998C52.4 12.8998 55.4001 12.6998 58.4001 12.9998C62.0001 13.2998 64.5001 16.5998 64.3001 20.1998C64.1001 23.6998 61.1001 26.4998 57.4001 26.4998C47.9001 26.4998 38.5 26.4998 29 26.4998C28.7 26.4998 28.3 26.4998 27.7 26.4998C29.7 28.1998 31.6 29.7998 33.5 31.3998C32.9 32.1998 32.2 32.8998 31.6 33.6998C28.6 31.1998 25.6 28.6998 22.6 26.1998C21.7 25.3998 21.7 24.4998 22.6 23.6998C25.8 21.2998 28.8 18.7998 31.8 16.2998Z" fill="black"/>
<path d="M83.7 22.8H80.9V29H77.4V12H83.7C85.7 12 87.3 12.4 88.4 13.3C89.5 14.2 90 15.5 90 17.1C90 18.3 89.7 19.2 89.2 20C88.7 20.8 88 21.5 87 22L90.7 29V29.2H86.9L83.7 22.8ZM80.9 20H83.7C84.6 20 85.3 19.8 85.8 19.3C86.3 18.8 86.5 18.2 86.5 17.4C86.5 16.6 86.3 16 85.8 15.5C85.3 15 84.6 14.8 83.7 14.8H80.9V20Z" fill="black"/>
<path d="M98.3 29.2998C96.4 29.2998 94.9 28.6998 93.8 27.5998C92.7 26.4998 92 24.9998 92 23.0998V22.7998C92 21.4998 92.2 20.3998 92.7 19.3998C93.2 18.3998 93.9 17.5998 94.8 17.0998C95.7 16.5998 96.7 16.2998 97.9 16.2998C99.6 16.2998 101 16.7998 102 17.8998C103 18.9998 103.5 20.4998 103.5 22.5998V23.9998H95.4C95.5 24.7998 95.8 25.4998 96.4 25.9998C97 26.4998 97.6 26.7998 98.5 26.7998C99.8 26.7998 100.8 26.2998 101.6 25.3998L103.3 27.2998C102.8 27.9998 102.1 28.5998 101.2 28.9998C100.3 29.3998 99.4 29.2998 98.3 29.2998ZM98 18.8998C97.3 18.8998 96.8 19.0998 96.4 19.5998C96 20.0998 95.7 20.6998 95.6 21.5998H100.3V21.2998C100.3 20.4998 100.1 19.9998 99.7 19.5998C99.2 19.0998 98.7 18.8998 98 18.8998Z" fill="black"/>
<path d="M105 22.7002C105 20.8002 105.5 19.2002 106.4 18.0002C107.3 16.8002 108.6 16.2002 110.1 16.2002C111.5 16.2002 112.6 16.7002 113.3 17.6002L113.4 16.4002H116.5V28.7002C116.5 29.8002 116.2 30.8002 115.7 31.6002C115.2 32.4002 114.5 33.0002 113.6 33.5002C112.7 34.0002 111.6 34.1002 110.4 34.1002C109.5 34.1002 108.6 33.9002 107.7 33.5002C106.8 33.1002 106.1 32.7002 105.7 32.1002L107.2 30.0002C108 30.9002 109.1 31.4002 110.3 31.4002C111.2 31.4002 111.9 31.2002 112.4 30.7002C112.9 30.2002 113.2 29.5002 113.2 28.7002V28.0002C112.4 28.9002 111.4 29.3002 110.1 29.3002C108.6 29.3002 107.3 28.7002 106.4 27.5002C105.5 26.3002 105 24.7002 105 22.8002V22.7002ZM108.4 22.9002C108.4 24.1002 108.6 25.0002 109.1 25.6002C109.6 26.2002 110.2 26.6002 111 26.6002C112 26.6002 112.8 26.2002 113.2 25.4002V20.1002C112.7 19.3002 112 18.9002 111 18.9002C110.2 18.9002 109.5 19.2002 109.1 19.9002C108.7 20.6002 108.4 21.6002 108.4 22.9002Z" fill="black"/>
<path d="M126.3 19.6002C125.8 19.5002 125.4 19.5002 125.1 19.5002C123.8 19.5002 123 19.9002 122.6 20.8002V29.1002H119.2V16.4002H122.4L122.5 17.9002C123.2 16.7002 124.1 16.2002 125.3 16.2002C125.7 16.2002 126 16.3002 126.4 16.4002L126.3 19.6002Z" fill="black"/>
<path d="M133.5 29.3002C131.6 29.3002 130.1 28.7002 129 27.6002C127.8 26.5002 127.2 24.9002 127.2 23.0002V22.7002C127.2 21.4002 127.4 20.3002 127.9 19.3002C128.4 18.3002 129.1 17.5002 130 17.0002C130.9 16.5002 131.9 16.2002 133.1 16.2002C134.8 16.2002 136.2 16.7002 137.2 17.8002C138.2 18.9002 138.7 20.4002 138.7 22.5002V23.9002H130.6C130.7 24.7002 131 25.4002 131.6 25.9002C132.2 26.4002 132.8 26.7002 133.7 26.7002C135 26.7002 136 26.2002 136.8 25.3002L138.5 27.2002C138 27.9002 137.3 28.5002 136.4 28.9002C135.5 29.3002 134.6 29.3002 133.5 29.3002ZM133.2 18.9002C132.5 18.9002 132 19.1002 131.6 19.6002C131.2 20.1002 130.9 20.7002 130.8 21.6002H135.5V21.3002C135.5 20.5002 135.3 20.0002 134.9 19.6002C134.4 19.1002 133.9 18.9002 133.2 18.9002Z" fill="black"/>
<path d="M147.5 25.5998C147.5 25.1998 147.3 24.8998 146.9 24.5998C146.5 24.2998 145.8 24.0998 144.9 23.9998C141.9 23.3998 140.4 22.0998 140.4 20.1998C140.4 19.0998 140.9 18.0998 141.8 17.3998C142.7 16.6998 144 16.2998 145.5 16.2998C147.1 16.2998 148.4 16.6998 149.4 17.3998C150.4 18.0998 150.8 19.0998 150.8 20.3998H147.4C147.4 19.8998 147.2 19.4998 146.9 19.1998C146.6 18.8998 146.1 18.6998 145.4 18.6998C144.8 18.6998 144.4 18.7998 144.1 19.0998C143.8 19.3998 143.6 19.6998 143.6 20.0998C143.6 20.4998 143.8 20.7998 144.1 20.9998C144.4 21.1998 145.1 21.3998 145.9 21.5998C146.7 21.7998 147.5 21.9998 148 22.1998C149.8 22.8998 150.7 23.9998 150.7 25.5998C150.7 26.7998 150.2 27.6998 149.2 28.3998C148.2 29.0998 146.9 29.4998 145.4 29.4998C144.3 29.4998 143.4 29.2998 142.6 28.8998C141.8 28.4998 141.1 27.9998 140.7 27.2998C140.3 26.5998 140 25.8998 140 25.1998H143.2C143.2 25.7998 143.5 26.2998 143.9 26.5998C144.3 26.8998 144.9 27.0998 145.6 27.0998C146.2 27.0998 146.7 26.9998 147.1 26.6998C147.5 26.3998 147.5 25.9998 147.5 25.5998Z" fill="black"/>
<path d="M160.4 29.0998C160.2 28.7998 160.1 28.3998 160.1 27.9998C159.3 28.8998 158.2 29.3998 156.9 29.3998C155.7 29.3998 154.6 28.9998 153.8 28.2998C153 27.5998 152.6 26.6998 152.6 25.5998C152.6 24.2998 153.1 23.1998 154.1 22.4998C155.1 21.7998 156.5 21.3998 158.4 21.3998H160V20.6998C160 20.0998 159.8 19.5998 159.5 19.2998C159.2 18.9998 158.7 18.7998 158.1 18.7998C157.5 18.7998 157.1 18.8998 156.8 19.1998C156.5 19.4998 156.3 19.7998 156.3 20.2998H152.9C152.9 19.5998 153.1 18.8998 153.6 18.2998C154.1 17.6998 154.7 17.1998 155.5 16.7998C156.3 16.3998 157.3 16.2998 158.3 16.2998C159.9 16.2998 161.1 16.6998 162 17.4998C162.9 18.2998 163.4 19.3998 163.4 20.7998V26.2998C163.4 27.4998 163.6 28.3998 163.9 28.9998V29.1998H160.4V29.0998ZM157.6 26.6998C158.1 26.6998 158.6 26.5998 159 26.3998C159.4 26.1998 159.7 25.8998 159.9 25.4998V23.2998H158.6C156.9 23.2998 156 23.8998 155.9 25.0998V25.2998C155.9 25.6998 156 26.0998 156.3 26.2998C156.6 26.4998 157.1 26.6998 157.6 26.6998Z" fill="black"/>
<path d="M173 19.6002C172.5 19.5002 172.1 19.5002 171.8 19.5002C170.5 19.5002 169.7 19.9002 169.3 20.8002V29.1002H165.9V16.4002H169.1L169.2 17.9002C169.9 16.7002 170.8 16.2002 172 16.2002C172.4 16.2002 172.7 16.3002 173.1 16.4002L173 19.6002Z" fill="black"/>
</g>
<defs>
<clipPath id="clip0_100_10">
<rect width="195.2" height="44.1" fill="white"/>
</clipPath>
</defs>
</svg>
