<svg width="75" height="45" viewBox="0 0 75 45" fill="none" xmlns="http://www.w3.org/2000/svg">
<g clip-path="url(#clip0_100_60)">
<path d="M22.1 9.46274e-05L52.1 9.72501e-05C64.3 9.83166e-05 74.2 9.9001 74.2 22.0001C74.2 34.2001 64.3 44.1001 52.1 44.1001L22 44.1001C9.79995 44.1001 -0.100051 34.2001 -0.10005 22.0001C-4.88885e-05 9.90009 9.89996 9.35608e-05 22.1 9.46274e-05Z" fill="white"/>
<path d="M43.6 23.6003C43.7 23.6003 43.9 23.6003 44.2 23.7003C42.2 25.4003 40.3 26.9003 38.4 28.5003C39.1 29.3003 39.7 30.0003 40.3 30.8003C43.3 28.3003 46.3 25.8003 49.2 23.4003C50.1 22.6003 50.1 21.7003 49.2 20.9003C46.2 18.4003 43.3 15.9003 40.2 13.4003C39.5 14.2003 38.9 14.9003 38.3 15.7003C40.2 17.3003 42.1 18.9003 44.1 20.6003C43.5 20.6003 43.2 20.6003 42.8 20.6003C36.5 20.6003 30.2 20.6003 23.9 20.6003L23.9 23.6003C30.7 23.6003 37.1 23.6003 43.6 23.6003Z" fill="black"/>
</g>
<defs>
<clipPath id="clip0_100_60">
<rect width="74.2" height="44.1" fill="white" transform="translate(74.2 44.1001) rotate(-180)"/>
</clipPath>
</defs>
</svg>
