<svg width="180" height="180" viewBox="0 0 180 180" fill="none" xmlns="http://www.w3.org/2000/svg">
<path fill-rule="evenodd" clip-rule="evenodd" d="M158.902 100.649L161.636 93.4004L137.443 87.5441L133.805 94.8143L76.9744 82.7642L71.1523 98.2838L43.0093 91.208L56.9449 152.286L129.872 175.5L168.266 102.958L158.902 100.649Z" fill="#27A376"/>
<path fill-rule="evenodd" clip-rule="evenodd" d="M79.2381 43.2459L74.6157 53.973C74.6157 53.973 90.0003 51.6672 98.7132 53.4744C112.778 56.3922 103.445 71.7795 103.445 71.7795L94.5354 70.8525L103.067 95.9625L127.291 76.185L117.559 74.5083C117.559 74.5083 126.746 61.3683 116.612 49.8618C105.166 36.8631 79.2381 43.2459 79.2381 43.2459Z" fill="#FFD023"/>
<path fill-rule="evenodd" clip-rule="evenodd" d="M157.968 20.6399L136.065 14.9402C136.065 14.9402 121.728 26.0525 129.707 46.6679L149.952 50.9339C149.952 50.9339 141.329 30.5399 157.968 20.6399Z" fill="white"/>
<path fill-rule="evenodd" clip-rule="evenodd" d="M11.7344 103.927L30.0998 97.2251C30.0998 97.2251 38.2952 113.806 42.4802 120.51L26.7095 132.8C26.7095 132.8 19.7318 124.29 11.7344 103.927Z" fill="white"/>
<path fill-rule="evenodd" clip-rule="evenodd" d="M49.9016 40.6028L49.6172 67.5002C49.6172 67.5002 17.4737 79.4261 13.7072 81.2162C13.7072 81.2162 11.0387 59.5604 11.9072 51.8177C11.9072 51.8204 33.7286 43.5143 49.9016 40.6028Z" fill="white"/>
<path d="M87.1313 20.954C87.1313 20.954 67.658 32.654 65.741 34.0697C65.741 34.0697 57.0308 19.5617 55.2803 14.8412C55.2803 14.8412 68.7497 6.55132 78.4175 3.34912L87.1313 20.954Z" fill="white"/>
<path d="M87.5349 20.7541L78.8202 3.15011C78.773 3.05192 78.6914 2.97449 78.5908 2.93251C78.4903 2.89054 78.3778 2.88694 78.2748 2.92241C68.67 6.10391 55.179 14.374 55.044 14.4577C54.9553 14.5122 54.8882 14.5959 54.8542 14.6944C54.8202 14.7928 54.8215 14.9 54.8577 14.9977C56.6028 19.7029 64.998 33.7078 65.3544 34.3018C65.3867 34.3556 65.4298 34.4021 65.4811 34.4382C65.5324 34.4744 65.5907 34.4994 65.6522 34.5117C65.7138 34.524 65.7772 34.5233 65.8384 34.5096C65.8997 34.4959 65.9574 34.4696 66.0078 34.4323C67.8852 33.0481 87.1686 21.457 87.363 21.34C87.4601 21.2818 87.5317 21.1893 87.5635 21.0807C87.5954 20.9721 87.5852 20.8555 87.5349 20.7541ZM65.88 33.4261C64.4895 31.0915 57.627 19.5004 55.8351 15.0301C57.9051 13.78 69.5358 6.85361 78.1875 3.90161L86.544 20.782C83.9547 22.339 68.985 31.3525 65.88 33.4261Z" fill="#111827"/>
<path fill-rule="evenodd" clip-rule="evenodd" d="M15.14 77.7512C15.14 77.7512 13.79 58.5812 14.2319 53.4782C14.2319 53.4782 36.9587 45.9587 47.6138 43.2749V65.5499L15.14 77.7512Z" fill="#CEEFDF"/>
<path fill-rule="evenodd" clip-rule="evenodd" d="M66.4508 29.9026C66.4508 29.9026 59.8421 18.5311 58.6064 15.4306C58.6064 15.4306 71.1164 8.88313 77.2617 6.31543L84.0117 19.6579L66.4508 29.9026Z" fill="#CEEFDF"/>
<path fill-rule="evenodd" clip-rule="evenodd" d="M14.7656 71.9335L21.953 60.9094L30.9134 67.2364L40.1222 55.3501L47.6822 63.9055L47.6102 65.5498L15.14 77.7511L14.7656 71.9335Z" fill="#55C790"/>
<path fill-rule="evenodd" clip-rule="evenodd" d="M66.4507 29.9027L64.3384 26.219L66.0124 19.1423L73.8298 22.0043L76.0744 14.4155L83.3257 18.3053L84.0097 19.6553L66.4507 29.9027Z" fill="#55C790"/>
<path fill-rule="evenodd" clip-rule="evenodd" d="M21.3633 54.1099C21.9803 54.1698 22.5529 54.4573 22.9694 54.9164C23.386 55.3754 23.6168 55.9731 23.6168 56.593C23.6168 57.2128 23.386 57.8105 22.9694 58.2696C22.5529 58.7286 21.9803 59.0161 21.3633 59.0761C20.7464 59.0161 20.1738 58.7286 19.7572 58.2696C19.3406 57.8105 19.1099 57.2128 19.1099 56.593C19.1099 55.9731 19.3406 55.3754 19.7572 54.9164C20.1738 54.4573 20.7464 54.1698 21.3633 54.1099Z" fill="#27A376"/>
<path fill-rule="evenodd" clip-rule="evenodd" d="M63.4412 15.1679C63.8947 15.1454 64.345 15.2548 64.7376 15.4829C65.1302 15.711 65.4483 16.048 65.6534 16.4531C66.0629 17.2748 65.7362 18.0326 64.9253 18.1451C64.4718 18.1675 64.0216 18.0579 63.6291 17.8296C63.2367 17.6014 62.9188 17.2642 62.714 16.859C62.3045 16.0373 62.6303 15.2795 63.4412 15.1679Z" fill="#27A376"/>
<path d="M58.7488 76.2661L65.0074 76.789C63.8661 80.3544 63.9855 84.2039 65.3458 87.6916L60.34 89.1901C60.34 89.1901 57.3142 84.286 58.7488 76.2661Z" fill="#E7F7EF"/>
<path d="M17.6898 18.3052C16.8245 20.2715 16.1103 22.3009 15.5532 24.3757L24.4515 28.774C25.341 26.5167 26.4038 24.3316 27.6303 22.2382L17.6898 18.3052Z" fill="#E7F7EF"/>
<path d="M153.116 75.2509C153.116 75.2509 155.432 71.7769 158.037 67.7026L163.932 69.6988C162.521 72.2358 160.954 74.6831 159.241 77.0266L153.116 75.2509Z" fill="#E7F7EF"/>
<path d="M125.55 111.813C125.543 111.719 125.507 111.629 125.446 111.557C125.385 111.485 125.303 111.433 125.211 111.41L43.1193 90.7705C43.0443 90.7516 42.9657 90.7523 42.8911 90.7726C42.8165 90.7928 42.7483 90.832 42.6933 90.8863C42.6382 90.9405 42.598 91.0081 42.5766 91.0824C42.5552 91.1567 42.5534 91.2353 42.5712 91.3105L56.5068 152.39C56.5242 152.466 56.5611 152.537 56.614 152.594C56.6669 152.652 56.7338 152.695 56.8083 152.718C132.564 176.85 129.762 175.95 129.87 175.95C129.932 175.95 129.994 175.938 130.051 175.913C130.107 175.888 130.159 175.852 130.201 175.807C130.243 175.761 130.276 175.708 130.296 175.649C130.317 175.591 130.325 175.529 130.32 175.467L125.55 111.813ZM57.3303 151.936L43.6116 91.8226L124.673 112.205L129.373 174.869L57.3303 151.936Z" fill="#111827"/>
<path d="M102.638 96.1068C102.668 96.1958 102.726 96.2731 102.802 96.3279C102.879 96.3826 102.971 96.412 103.065 96.4119C103.301 96.4119 102.713 96.8349 110.978 90.0831C111.071 90.0075 111.13 89.8983 111.142 89.7794C111.154 89.6604 111.118 89.5416 111.043 89.449C110.967 89.3564 110.858 89.2976 110.739 89.2855C110.62 89.2734 110.501 89.3091 110.409 89.3847L103.283 95.2031L100.62 87.3633C100.582 87.2501 100.5 87.1569 100.393 87.104C100.286 87.0512 100.162 87.0431 100.049 87.0816C99.9357 87.12 99.8424 87.2018 99.7896 87.309C99.7368 87.4161 99.7287 87.5399 99.7671 87.653L102.638 96.1068Z" fill="#111827"/>
<path d="M158.081 20.205L136.178 14.5008C136.112 14.4829 136.042 14.4808 135.974 14.4945C135.907 14.5083 135.844 14.5375 135.789 14.58C135.643 14.6934 121.28 26.1378 129.288 46.8261C129.315 46.896 129.359 46.958 129.416 47.0066C129.473 47.0552 129.541 47.0887 129.614 47.1042L149.859 51.3711C149.939 51.3879 150.023 51.3824 150.1 51.3552C150.178 51.328 150.246 51.28 150.299 51.2166C150.351 51.1532 150.385 51.0767 150.397 50.9954C150.408 50.9141 150.398 50.8312 150.366 50.7555C150.281 50.5557 142.086 30.6153 158.196 21.0267C158.272 20.9814 158.333 20.9147 158.371 20.8349C158.41 20.755 158.424 20.6656 158.412 20.5779C158.399 20.4902 158.361 20.408 158.303 20.3416C158.244 20.2753 158.167 20.2278 158.081 20.205ZM149.242 50.3217L130.039 46.2717C122.929 27.5706 134.621 16.7517 136.175 15.4278L156.842 20.8098C143.028 29.835 147.902 46.5174 149.242 50.3217Z" fill="#111827"/>
<path d="M136.608 18.8291C152.883 22.9736 151.927 22.7342 152.019 22.7342C152.129 22.7336 152.234 22.6933 152.316 22.6208C152.398 22.5483 152.45 22.4485 152.464 22.34C152.477 22.2315 152.451 22.1219 152.389 22.0314C152.328 21.941 152.236 21.876 152.13 21.8486L136.83 17.957C136.715 17.9307 136.595 17.9502 136.495 18.0115C136.394 18.0728 136.322 18.1709 136.293 18.2848C136.264 18.3988 136.281 18.5195 136.34 18.6212C136.399 18.7229 136.495 18.7975 136.609 18.8291H136.608Z" fill="#111827"/>
<path d="M149.826 24.833L134.238 21.0368C134.179 21.0189 134.118 21.0131 134.057 21.0198C133.996 21.0266 133.937 21.0457 133.884 21.076C133.83 21.1064 133.784 21.1473 133.747 21.1962C133.71 21.2452 133.683 21.3011 133.669 21.3607C133.655 21.4203 133.652 21.4822 133.663 21.5426C133.673 21.6031 133.695 21.6607 133.729 21.7122C133.762 21.7636 133.806 21.8076 133.857 21.8416C133.908 21.8756 133.965 21.8988 134.026 21.9098L149.614 25.706C149.672 25.7239 149.734 25.7297 149.795 25.723C149.856 25.7162 149.915 25.6971 149.968 25.6668C150.021 25.6364 150.068 25.5955 150.105 25.5466C150.142 25.4976 150.168 25.4417 150.183 25.3821C150.197 25.3225 150.199 25.2606 150.189 25.2002C150.179 25.1397 150.156 25.082 150.123 25.0306C150.089 24.9792 150.046 24.9352 149.995 24.9012C149.944 24.8672 149.886 24.844 149.826 24.833Z" fill="#111827"/>
<path d="M147.685 27.9154L132.096 24.1201C132.037 24.1024 131.976 24.0968 131.915 24.1037C131.854 24.1105 131.796 24.1297 131.743 24.16C131.689 24.1903 131.643 24.2311 131.606 24.28C131.569 24.3288 131.543 24.3846 131.528 24.444C131.514 24.5034 131.512 24.5652 131.522 24.6255C131.532 24.6858 131.554 24.7434 131.587 24.7947C131.621 24.8461 131.664 24.8902 131.715 24.9243C131.765 24.9584 131.823 24.9818 131.883 24.9931L147.472 28.7893C147.53 28.8054 147.59 28.8097 147.65 28.8019C147.71 28.7941 147.768 28.7744 147.82 28.7439C147.872 28.7134 147.917 28.6728 147.953 28.6244C147.989 28.5761 148.015 28.521 148.029 28.4624C148.043 28.4039 148.046 28.343 148.036 28.2835C148.026 28.224 148.005 28.167 147.973 28.116C147.941 28.065 147.899 28.021 147.849 27.9865C147.8 27.952 147.744 27.9279 147.685 27.9154Z" fill="#111827"/>
<path d="M145.456 35.1531L129.87 31.3578C129.812 31.3399 129.75 31.3341 129.689 31.3409C129.628 31.3476 129.569 31.3667 129.516 31.3971C129.463 31.4274 129.416 31.4683 129.379 31.5173C129.342 31.5662 129.316 31.6222 129.301 31.6818C129.287 31.7413 129.285 31.8032 129.295 31.8637C129.305 31.9241 129.328 31.9818 129.361 32.0332C129.395 32.0846 129.438 32.1287 129.489 32.1627C129.54 32.1967 129.598 32.2198 129.658 32.2308L145.246 36.027C145.304 36.0436 145.365 36.0482 145.425 36.0406C145.485 36.033 145.543 36.0134 145.595 35.9829C145.648 35.9524 145.693 35.9117 145.73 35.8631C145.766 35.8146 145.792 35.7593 145.806 35.7004C145.82 35.6416 145.823 35.5805 145.813 35.5208C145.803 35.461 145.781 35.4039 145.749 35.3528C145.716 35.3017 145.674 35.2577 145.624 35.2234C145.574 35.1891 145.518 35.1652 145.458 35.1531H145.456Z" fill="#111827"/>
<path d="M145.456 38.9493L129.87 35.1531C129.812 35.1366 129.751 35.1319 129.691 35.1395C129.631 35.1471 129.573 35.1667 129.521 35.1972C129.468 35.2277 129.423 35.2685 129.387 35.317C129.35 35.3655 129.324 35.4209 129.31 35.4797C129.296 35.5385 129.294 35.5997 129.303 35.6594C129.313 35.7191 129.335 35.7762 129.368 35.8273C129.4 35.8784 129.442 35.9225 129.492 35.9568C129.542 35.9911 129.599 36.015 129.658 36.027L145.246 39.8232C145.304 39.8397 145.365 39.8444 145.425 39.8368C145.485 39.8292 145.543 39.8096 145.595 39.7791C145.648 39.7486 145.693 39.7078 145.73 39.6593C145.766 39.6108 145.792 39.5554 145.806 39.4966C145.82 39.4378 145.823 39.3766 145.813 39.3169C145.803 39.2572 145.781 39.2001 145.749 39.149C145.716 39.0979 145.674 39.0538 145.624 39.0195C145.574 38.9852 145.518 38.9613 145.458 38.9493H145.456Z" fill="#111827"/>
<path d="M145.456 42.7502L129.87 38.9495C129.812 38.9329 129.751 38.9283 129.691 38.9359C129.631 38.9435 129.573 38.9631 129.521 38.9936C129.468 39.0241 129.423 39.0649 129.387 39.1134C129.35 39.1619 129.324 39.2173 129.31 39.2761C129.296 39.3349 129.294 39.396 129.303 39.4558C129.313 39.5155 129.335 39.5726 129.368 39.6237C129.4 39.6748 129.442 39.7188 129.492 39.7532C129.542 39.7875 129.599 39.8114 129.658 39.8234L145.246 43.6196C145.304 43.6361 145.365 43.6407 145.425 43.6332C145.485 43.6256 145.543 43.606 145.595 43.5755C145.648 43.545 145.693 43.5042 145.73 43.4557C145.766 43.4072 145.792 43.3518 145.806 43.293C145.82 43.2341 145.823 43.173 145.813 43.1133C145.803 43.0536 145.781 42.9964 145.749 42.9453C145.716 42.8942 145.674 42.8502 145.624 42.8159C145.574 42.7816 145.518 42.7577 145.458 42.7457L145.456 42.7502Z" fill="#111827"/>
<path d="M13.9045 81.6247C17.6062 79.8634 49.4545 68.0437 49.774 67.924C49.8593 67.8923 49.933 67.8356 49.9854 67.7612C50.0378 67.6868 50.0664 67.5983 50.0674 67.5073L50.3518 40.6072C50.3529 40.5408 50.3392 40.475 50.3118 40.4145C50.2844 40.354 50.244 40.3003 50.1934 40.2573C50.1428 40.2143 50.0833 40.183 50.0192 40.1657C49.9551 40.1484 49.888 40.1455 49.8226 40.1572C33.7936 43.0435 11.9659 51.3172 11.7526 51.3964C11.6751 51.4257 11.6072 51.4758 11.5564 51.5412C11.5056 51.6067 11.4738 51.6849 11.4646 51.7672C10.6033 59.4748 13.1593 80.3872 13.2646 81.271C13.273 81.3419 13.2982 81.4099 13.338 81.4692C13.3779 81.5285 13.4313 81.5774 13.4938 81.612C13.5564 81.6466 13.6262 81.6658 13.6976 81.668C13.7691 81.6702 13.84 81.6553 13.9045 81.6247ZM12.3304 52.1434C14.8054 51.2101 34.5019 43.9201 49.4464 41.1436L49.171 67.1887C45.8914 68.4064 19.4242 78.2434 14.0854 80.5573C13.6696 77.0401 11.6392 59.2201 12.3304 52.1434Z" fill="#111827"/>
<path d="M15.3002 78.1722L47.8424 65.97C47.9285 65.9378 48.0027 65.88 48.055 65.8044C48.1073 65.7288 48.1352 65.6389 48.1349 65.547C48.1349 65.3373 48.1502 67.9842 47.9918 43.272C47.9912 43.2037 47.9751 43.1365 47.9446 43.0754C47.9142 43.0143 47.8703 42.9609 47.8162 42.9192C47.7621 42.8776 47.6992 42.8489 47.6323 42.8351C47.5654 42.8214 47.4963 42.8231 47.4302 42.84C36.8831 45.495 14.3174 52.9749 14.0906 53.0505C14.007 53.0782 13.9334 53.1298 13.8788 53.1989C13.8243 53.268 13.7912 53.3516 13.7837 53.4393C13.3418 58.518 14.636 76.9986 14.6909 77.7825C14.6957 77.8526 14.7169 77.9207 14.7527 77.9812C14.7886 78.0417 14.8381 78.0929 14.8974 78.1308C14.9566 78.1687 15.0239 78.1922 15.0939 78.1994C15.1638 78.2066 15.2345 78.1973 15.3002 78.1722ZM15.5495 77.1174C15.4883 76.212 15.3695 74.3589 15.2282 72.054L22.0772 61.5474L30.6569 67.6044C30.7513 67.6713 30.8678 67.6992 30.9823 67.6825C31.0967 67.6657 31.2003 67.6055 31.2716 67.5144L40.1474 56.0583L47.2322 64.0683V65.2383L15.5495 77.1174ZM14.6603 53.8074C17.2649 52.947 37.0928 46.4409 47.1593 43.8489V62.6976L40.4615 55.0539C40.4177 55.0044 40.3635 54.9651 40.3028 54.9389C40.2422 54.9127 40.1764 54.9002 40.1104 54.9022C40.0443 54.9043 39.9795 54.9209 39.9206 54.9508C39.8616 54.9808 39.81 55.0233 39.7694 55.0755L30.8216 66.6207L22.2122 60.543C22.1628 60.508 22.1068 60.4833 22.0476 60.4704C21.9884 60.4576 21.9272 60.4568 21.8677 60.4681C21.8082 60.4795 21.7516 60.5027 21.7013 60.5365C21.651 60.5702 21.6081 60.6137 21.575 60.6645L15.1364 70.5411C14.8034 64.7343 14.4425 57.0159 14.6576 53.811L14.6603 53.8074Z" fill="#111827"/>
<path d="M66.06 30.1284C66.0995 30.1965 66.1562 30.253 66.2245 30.2924C66.2927 30.3317 66.37 30.3524 66.4488 30.3525C66.6378 30.3525 65.4426 30.9897 84.2346 20.0457C84.3336 19.988 84.407 19.8947 84.4396 19.7848C84.4722 19.675 84.4616 19.5568 84.4101 19.4544C70.8075 -7.4799 82.8729 16.3944 77.6601 6.1119C77.6088 6.01037 77.521 5.93202 77.4143 5.89262C77.3076 5.85321 77.1899 5.85567 77.085 5.8995C70.9992 8.4456 58.5225 14.967 58.3974 15.03C58.2986 15.0817 58.2226 15.1683 58.1841 15.2729C58.1455 15.3775 58.1471 15.4926 58.1886 15.5961C59.4216 18.6921 65.79 29.664 66.06 30.1284ZM66.6117 29.2869C66.2994 28.7469 65.6883 27.684 64.9404 26.3691L66.2004 19.8063L73.4256 22.5963C73.4832 22.6187 73.5448 22.629 73.6066 22.6265C73.6684 22.624 73.729 22.6088 73.7847 22.5819C73.8403 22.555 73.8898 22.5168 73.9301 22.4699C73.9703 22.423 74.0005 22.3683 74.0187 22.3092L76.2984 14.9004L83.1672 18.9819L83.4192 19.4805L66.6117 29.2869ZM77.049 6.8931L82.4085 17.4879L76.2651 13.8366C76.2066 13.8017 76.1409 13.7805 76.073 13.7747C76.0051 13.7689 75.9367 13.7785 75.8731 13.803C75.8095 13.8274 75.7523 13.866 75.7057 13.9158C75.6592 13.9656 75.6246 14.0253 75.6045 14.0904L73.2978 21.5838L66.0195 18.7713C65.958 18.7476 65.892 18.7377 65.8263 18.7423C65.7605 18.7469 65.6966 18.7659 65.639 18.7979C65.5814 18.8299 65.5315 18.8742 65.4929 18.9276C65.4543 18.981 65.4279 19.0423 65.4156 19.107L64.26 25.1595C62.3943 21.8574 60.0561 17.622 59.1849 15.6384C61.2441 14.5647 71.4816 9.27 77.049 6.8931Z" fill="#111827"/>
<path d="M21.3637 59.5252C22.1008 59.466 22.7886 59.1313 23.2902 58.5879C23.7917 58.0445 24.0702 57.3321 24.0702 56.5926C24.0702 55.8531 23.7917 55.1407 23.2902 54.5972C22.7886 54.0538 22.1008 53.7191 21.3637 53.6599C20.6266 53.7191 19.9388 54.0538 19.4372 54.5972C18.9357 55.1407 18.6572 55.8531 18.6572 56.5926C18.6572 57.3321 18.9357 58.0445 19.4372 58.5879C19.9388 59.1313 20.6266 59.466 21.3637 59.5252ZM21.3637 54.5599C21.8618 54.6184 22.321 54.8576 22.6543 55.2323C22.9876 55.607 23.1718 56.0911 23.1718 56.5926C23.1718 57.094 22.9876 57.5781 22.6543 57.9528C22.321 58.3275 21.8618 58.5668 21.3637 58.6252C20.8656 58.5668 20.4064 58.3275 20.0731 57.9528C19.7398 57.5781 19.5557 57.094 19.5557 56.5926C19.5557 56.0911 19.7398 55.607 20.0731 55.2323C20.4064 54.8576 20.8656 54.6184 21.3637 54.5599Z" fill="#111827"/>
<path d="M66.1135 17.8426C66.8461 16.4539 65.083 14.4883 63.3793 14.7214C63.1235 14.7533 62.8801 14.8502 62.6723 15.0029C62.4645 15.1555 62.2992 15.3587 62.1921 15.5932C62.0851 15.8278 62.0398 16.0858 62.0606 16.3428C62.0814 16.5997 62.1676 16.8471 62.311 17.0614C63.1066 18.6562 65.4016 19.1881 66.1135 17.8426ZM63.0535 15.8905C63.3604 15.3064 64.7518 15.6466 65.254 16.6546C65.4997 17.1451 65.4142 17.623 64.8679 17.6995C63.8239 17.8462 62.6989 16.5601 63.0499 15.8905H63.0535Z" fill="#111827"/>
<path d="M29.9452 96.8023L11.5798 103.505C11.5234 103.525 11.4718 103.557 11.4279 103.598C11.3839 103.638 11.3486 103.688 11.324 103.742C11.2993 103.797 11.2858 103.856 11.2843 103.916C11.2828 103.976 11.2933 104.036 11.3152 104.091C19.2469 124.287 26.2921 132.999 26.3623 133.086C26.4368 133.177 26.5438 133.235 26.6605 133.248C26.7772 133.26 26.8943 133.227 26.9869 133.155L42.7603 120.864C42.8481 120.795 42.9074 120.697 42.9267 120.587C42.946 120.477 42.9239 120.364 42.8647 120.27C38.7364 113.664 30.5851 97.192 30.5032 97.0255C30.454 96.9261 30.3699 96.8483 30.2669 96.8071C30.1639 96.7659 30.0493 96.7642 29.9452 96.8023ZM41.8882 120.402L26.7889 132.168C25.4452 130.393 19.2532 121.728 12.3223 104.191L29.8723 97.786C31.0792 100.208 38.0299 114.125 41.8882 120.402Z" fill="#111827"/>
<path d="M29.5842 101.333L15.8502 107.133C15.7402 107.18 15.6531 107.268 15.608 107.378C15.5629 107.489 15.5636 107.613 15.6099 107.723C15.6563 107.833 15.7444 107.92 15.8549 107.965C15.9655 108.01 16.0894 108.009 16.1994 107.963L29.9343 102.163C30.0444 102.116 30.1315 102.028 30.1765 101.917C30.2214 101.807 30.2206 101.683 30.1742 101.573C30.1278 101.463 30.0395 101.376 29.9289 101.331C29.8183 101.286 29.6943 101.286 29.5842 101.333Z" fill="#111827"/>
<path d="M17.114 111.183C17.1394 111.236 17.1751 111.284 17.2191 111.323C17.263 111.363 17.3143 111.393 17.3701 111.413C17.4258 111.433 17.4849 111.441 17.544 111.438C17.603 111.435 17.6609 111.42 17.7143 111.395L31.0118 105.054C31.1107 104.997 31.1846 104.906 31.2186 104.797C31.2527 104.689 31.2444 104.571 31.1953 104.468C31.1463 104.366 31.0601 104.285 30.9543 104.244C30.8484 104.202 30.7307 104.202 30.6248 104.244L17.3264 110.583C17.2188 110.635 17.136 110.727 17.0962 110.839C17.0563 110.951 17.0627 111.075 17.114 111.183Z" fill="#111827"/>
<path d="M18.6177 114.486C18.6692 114.593 18.7613 114.676 18.8736 114.715C18.986 114.755 19.1095 114.748 19.2171 114.697L32.7603 108.225C32.8599 108.169 32.9345 108.077 32.969 107.968C33.0034 107.86 32.9951 107.742 32.9458 107.638C32.8964 107.535 32.8097 107.455 32.7032 107.413C32.5967 107.372 32.4784 107.373 32.3724 107.415L18.8274 113.888C18.7207 113.94 18.6389 114.032 18.5996 114.144C18.5603 114.256 18.5668 114.378 18.6177 114.486Z" fill="#111827"/>
<path d="M21.3646 119.707C21.4216 119.811 21.518 119.889 21.6324 119.923C21.7468 119.957 21.87 119.944 21.9748 119.886L34.8646 112.86C34.9662 112.801 35.0409 112.705 35.0727 112.592C35.1045 112.479 35.0909 112.358 35.0348 112.255C34.9786 112.152 34.8844 112.075 34.7723 112.041C34.6601 112.006 34.5388 112.016 34.4344 112.07L21.5437 119.101C21.4403 119.158 21.3635 119.254 21.33 119.367C21.2965 119.48 21.3089 119.602 21.3646 119.707Z" fill="#111827"/>
<path d="M23.3389 123.383C23.3704 123.433 23.4114 123.476 23.4597 123.51C23.5079 123.545 23.5625 123.569 23.6201 123.582C23.6778 123.595 23.7375 123.597 23.7958 123.587C23.8541 123.577 23.9099 123.556 23.9599 123.524L36.8389 115.394C36.9399 115.331 37.0114 115.229 37.0378 115.113C37.0641 114.996 37.0431 114.874 36.9793 114.773C36.9156 114.672 36.8144 114.601 36.6979 114.575C36.5815 114.548 36.4593 114.569 36.3583 114.633L23.4793 122.76C23.4291 122.792 23.3856 122.833 23.3513 122.881C23.317 122.93 23.2926 122.984 23.2796 123.042C23.2665 123.1 23.265 123.16 23.2752 123.218C23.2854 123.277 23.3071 123.333 23.3389 123.383Z" fill="#111827"/>
<path d="M25.4155 126.143C25.4789 126.244 25.5798 126.316 25.6961 126.343C25.8124 126.369 25.9345 126.349 26.0356 126.285L38.7589 118.325C38.8116 118.295 38.8576 118.254 38.8943 118.206C38.931 118.158 38.9576 118.103 38.9724 118.044C38.9872 117.985 38.99 117.924 38.9806 117.864C38.9711 117.804 38.9497 117.747 38.9175 117.695C38.8854 117.644 38.8431 117.599 38.7934 117.565C38.7436 117.53 38.6873 117.506 38.628 117.493C38.5686 117.481 38.5073 117.481 38.4479 117.493C38.3884 117.504 38.3319 117.528 38.2819 117.563L25.5604 125.522C25.51 125.553 25.4663 125.594 25.4317 125.642C25.3971 125.69 25.3724 125.745 25.3589 125.803C25.3455 125.86 25.3435 125.92 25.3532 125.978C25.3629 126.037 25.3841 126.093 25.4155 126.143Z" fill="#111827"/>
<path d="M52.7681 158.12C52.7569 158.044 52.7262 157.972 52.6789 157.91C52.6316 157.849 52.5694 157.801 52.4983 157.771C52.4271 157.741 52.3494 157.73 52.2726 157.738C52.1958 157.747 52.1225 157.775 52.0598 157.821L45.0398 162.87C44.9428 162.94 44.8774 163.046 44.8581 163.163C44.8388 163.281 44.8671 163.402 44.9368 163.499C45.0065 163.596 45.1119 163.662 45.2298 163.681C45.3477 163.7 45.4684 163.672 45.5654 163.602L51.5666 159.287C50.6045 162.015 47.3069 169.239 39.2771 169.595C37.5351 169.724 35.795 169.32 34.2876 168.438C32.7801 167.555 31.5764 166.236 30.836 164.653C41.9348 163.519 40.5893 153.919 33.8699 154.326C29.486 154.563 28.0712 159.518 29.5247 163.825C27.5506 163.89 25.5751 163.755 23.6279 163.424C19.1333 162.697 15.9167 160.724 14.069 157.567C10.019 150.643 13.79 140.174 13.8287 140.07C13.87 139.958 13.8651 139.834 13.8151 139.725C13.765 139.617 13.6739 139.533 13.5619 139.492C13.4498 139.45 13.3259 139.455 13.2175 139.505C13.109 139.555 13.0249 139.646 12.9836 139.758C12.8198 140.203 9.02813 150.725 13.2905 158.019C15.2804 161.422 18.7103 163.54 23.4848 164.311C25.594 164.677 27.7361 164.817 29.8748 164.728C30.6149 166.472 31.8601 167.954 33.45 168.984C35.0399 170.014 36.9017 170.544 38.7956 170.506C45.2099 170.506 49.8422 166.148 52.1723 160.226L53.0273 165.981C53.0466 166.097 53.1109 166.202 53.2063 166.271C53.3017 166.341 53.4207 166.37 53.5374 166.353C53.6542 166.335 53.7595 166.273 53.8306 166.178C53.9017 166.084 53.9329 165.966 53.9174 165.849L52.7681 158.12ZM34.2281 155.217C37.6427 155.217 39.161 158.231 37.4348 160.689C36.2135 162.427 33.7529 163.479 30.4553 163.766C29.0387 159.901 30.1664 155.217 34.229 155.217H34.2281Z" fill="#111827"/>
</svg>
